{
    "asset" : {
        "generator" : "Khronos glTF Blender I/O v3.3.32",
        "version" : "2.0"
    },
    "scene" : 0,
    "scenes" : [
        {
            "name" : "Scene",
            "nodes" : [
                0,
                1,
                2,
                3,
                4,
                5
            ]
        }
    ],
    "nodes" : [
        {
            "mesh" : 0,
            "name" : "TempleWallMeshFlowers"
        },
        {
            "mesh" : 1,
            "name" : "TempleWallMeshFlowers.001"
        },
        {
            "mesh" : 2,
            "name" : "TempleWallMeshFlowers.002"
        },
        {
            "mesh" : 3,
            "name" : "TempleWallMeshFlowers.003"
        },
        {
            "mesh" : 4,
            "name" : "TempleWallMeshFlowers.004"
        },
        {
            "mesh" : 5,
            "name" : "TempleWallMeshFlowers.005"
        }
    ],
    "meshes" : [
        {
            "name" : "Cube.034",
            "primitives" : [
                {
                    "attributes" : {
                        "POSITION" : 0,
                        "NORMAL" : 1,
                        "TEXCOORD_0" : 2
                    },
                    "indices" : 3
                }
            ]
        },
        {
            "name" : "Cube.067",
            "primitives" : [
                {
                    "attributes" : {
                        "POSITION" : 4,
                        "NORMAL" : 5,
                        "TEXCOORD_0" : 6
                    },
                    "indices" : 7
                }
            ]
        },
        {
            "name" : "Cube.068",
            "primitives" : [
                {
                    "attributes" : {
                        "POSITION" : 8,
                        "NORMAL" : 9,
                        "TEXCOORD_0" : 10
                    },
                    "indices" : 11
                }
            ]
        },
        {
            "name" : "Cube.069",
            "primitives" : [
                {
                    "attributes" : {
                        "POSITION" : 12,
                        "NORMAL" : 13,
                        "TEXCOORD_0" : 14
                    },
                    "indices" : 15
                }
            ]
        },
        {
            "name" : "Cube.070",
            "primitives" : [
                {
                    "attributes" : {
                        "POSITION" : 16,
                        "NORMAL" : 17,
                        "TEXCOORD_0" : 18
                    },
                    "indices" : 19
                }
            ]
        },
        {
            "name" : "Cube.071",
            "primitives" : [
                {
                    "attributes" : {
                        "POSITION" : 20,
                        "NORMAL" : 21,
                        "TEXCOORD_0" : 22
                    },
                    "indices" : 23
                }
            ]
        }
    ],
    "accessors" : [
        {
            "bufferView" : 0,
            "componentType" : 5126,
            "count" : 5232,
            "max" : [
                66.08789825439453,
                23.88942527770996,
                -533.1412353515625
            ],
            "min" : [
                -2.9515953063964844,
                -19.50513458251953,
                -541.4033203125
            ],
            "type" : "VEC3"
        },
        {
            "bufferView" : 1,
            "componentType" : 5126,
            "count" : 5232,
            "type" : "VEC3"
        },
        {
            "bufferView" : 2,
            "componentType" : 5126,
            "count" : 5232,
            "type" : "VEC2"
        },
        {
            "bufferView" : 3,
            "componentType" : 5123,
            "count" : 7848,
            "type" : "SCALAR"
        },
        {
            "bufferView" : 4,
            "componentType" : 5126,
            "count" : 4336,
            "max" : [
                71.38882446289062,
                15.066610336303711,
                -384.5029602050781
            ],
            "min" : [
                12.416961669921875,
                -9.14462661743164,
                -388.3155517578125
            ],
            "type" : "VEC3"
        },
        {
            "bufferView" : 5,
            "componentType" : 5126,
            "count" : 4336,
            "type" : "VEC3"
        },
        {
            "bufferView" : 6,
            "componentType" : 5126,
            "count" : 4336,
            "type" : "VEC2"
        },
        {
            "bufferView" : 7,
            "componentType" : 5123,
            "count" : 6504,
            "type" : "SCALAR"
        },
        {
            "bufferView" : 8,
            "componentType" : 5126,
            "count" : 9624,
            "max" : [
                144.94236755371094,
                15.044602394104004,
                -382.7323303222656
            ],
            "min" : [
                70.49592590332031,
                -25.48069190979004,
                -417.96392822265625
            ],
            "type" : "VEC3"
        },
        {
            "bufferView" : 9,
            "componentType" : 5126,
            "count" : 9624,
            "type" : "VEC3"
        },
        {
            "bufferView" : 10,
            "componentType" : 5126,
            "count" : 9624,
            "type" : "VEC2"
        },
        {
            "bufferView" : 11,
            "componentType" : 5123,
            "count" : 14436,
            "type" : "SCALAR"
        },
        {
            "bufferView" : 12,
            "componentType" : 5126,
            "count" : 5724,
            "max" : [
                145.45071411132812,
                13.928854942321777,
                -414.22674560546875
            ],
            "min" : [
                141.1986083984375,
                -25.431541442871094,
                -475.46575927734375
            ],
            "type" : "VEC3"
        },
        {
            "bufferView" : 13,
            "componentType" : 5126,
            "count" : 5724,
            "type" : "VEC3"
        },
        {
            "bufferView" : 14,
            "componentType" : 5126,
            "count" : 5724,
            "type" : "VEC2"
        },
        {
            "bufferView" : 15,
            "componentType" : 5123,
            "count" : 8586,
            "type" : "SCALAR"
        },
        {
            "bufferView" : 16,
            "componentType" : 5126,
            "count" : 6772,
            "max" : [
                145.65481567382812,
                20.16397476196289,
                -471.75799560546875
            ],
            "min" : [
                121.3704605102539,
                -25.56627082824707,
                -537.8692016601562
            ],
            "type" : "VEC3"
        },
        {
            "bufferView" : 17,
            "componentType" : 5126,
            "count" : 6772,
            "type" : "VEC3"
        },
        {
            "bufferView" : 18,
            "componentType" : 5126,
            "count" : 6772,
            "type" : "VEC2"
        },
        {
            "bufferView" : 19,
            "componentType" : 5123,
            "count" : 10158,
            "type" : "SCALAR"
        },
        {
            "bufferView" : 20,
            "componentType" : 5126,
            "count" : 7816,
            "max" : [
                139.3521270751953,
                24.216428756713867,
                -526.5115356445312
            ],
            "min" : [
                63.46432876586914,
                -24.67996597290039,
                -540.093994140625
            ],
            "type" : "VEC3"
        },
        {
            "bufferView" : 21,
            "componentType" : 5126,
            "count" : 7816,
            "type" : "VEC3"
        },
        {
            "bufferView" : 22,
            "componentType" : 5126,
            "count" : 7816,
            "type" : "VEC2"
        },
        {
            "bufferView" : 23,
            "componentType" : 5123,
            "count" : 11724,
            "type" : "SCALAR"
        }
    ],
    "bufferViews" : [
        {
            "buffer" : 0,
            "byteLength" : 62784,
            "byteOffset" : 0,
            "target" : 34962
        },
        {
            "buffer" : 0,
            "byteLength" : 62784,
            "byteOffset" : 62784,
            "target" : 34962
        },
        {
            "buffer" : 0,
            "byteLength" : 41856,
            "byteOffset" : 125568,
            "target" : 34962
        },
        {
            "buffer" : 0,
            "byteLength" : 15696,
            "byteOffset" : 167424,
            "target" : 34963
        },
        {
            "buffer" : 0,
            "byteLength" : 52032,
            "byteOffset" : 183120,
            "target" : 34962
        },
        {
            "buffer" : 0,
            "byteLength" : 52032,
            "byteOffset" : 235152,
            "target" : 34962
        },
        {
            "buffer" : 0,
            "byteLength" : 34688,
            "byteOffset" : 287184,
            "target" : 34962
        },
        {
            "buffer" : 0,
            "byteLength" : 13008,
            "byteOffset" : 321872,
            "target" : 34963
        },
        {
            "buffer" : 0,
            "byteLength" : 115488,
            "byteOffset" : 334880,
            "target" : 34962
        },
        {
            "buffer" : 0,
            "byteLength" : 115488,
            "byteOffset" : 450368,
            "target" : 34962
        },
        {
            "buffer" : 0,
            "byteLength" : 76992,
            "byteOffset" : 565856,
            "target" : 34962
        },
        {
            "buffer" : 0,
            "byteLength" : 28872,
            "byteOffset" : 642848,
            "target" : 34963
        },
        {
            "buffer" : 0,
            "byteLength" : 68688,
            "byteOffset" : 671720,
            "target" : 34962
        },
        {
            "buffer" : 0,
            "byteLength" : 68688,
            "byteOffset" : 740408,
            "target" : 34962
        },
        {
            "buffer" : 0,
            "byteLength" : 45792,
            "byteOffset" : 809096,
            "target" : 34962
        },
        {
            "buffer" : 0,
            "byteLength" : 17172,
            "byteOffset" : 854888,
            "target" : 34963
        },
        {
            "buffer" : 0,
            "byteLength" : 81264,
            "byteOffset" : 872060,
            "target" : 34962
        },
        {
            "buffer" : 0,
            "byteLength" : 81264,
            "byteOffset" : 953324,
            "target" : 34962
        },
        {
            "buffer" : 0,
            "byteLength" : 54176,
            "byteOffset" : 1034588,
            "target" : 34962
        },
        {
            "buffer" : 0,
            "byteLength" : 20316,
            "byteOffset" : 1088764,
            "target" : 34963
        },
        {
            "buffer" : 0,
            "byteLength" : 93792,
            "byteOffset" : 1109080,
            "target" : 34962
        },
        {
            "buffer" : 0,
            "byteLength" : 93792,
            "byteOffset" : 1202872,
            "target" : 34962
        },
        {
            "buffer" : 0,
            "byteLength" : 62528,
            "byteOffset" : 1296664,
            "target" : 34962
        },
        {
            "buffer" : 0,
            "byteLength" : 23448,
            "byteOffset" : 1359192,
            "target" : 34963
        }
    ],
    "buffers" : [
        {
            "byteLength" : 1382640,
            "uri" : "data:application/octet-stream;base64,"
        }
    ]
}
