{
    "asset" : {
        "generator" : "Khronos glTF Blender I/O v3.3.32",
        "version" : "2.0"
    },
    "scene" : 0,
    "scenes" : [
        {
            "name" : "Scene",
            "nodes" : [
                0
            ]
        }
    ],
    "nodes" : [
        {
            "mesh" : 0,
            "name" : "Plane.003",
            "scale" : [
                2.60980224609375,
                2.60980224609375,
                2.60980224609375
            ]
        }
    ],
    "meshes" : [
        {
            "name" : "Plane.006",
            "primitives" : [
                {
                    "attributes" : {
                        "POSITION" : 0,
                        "NORMAL" : 1,
                        "TEXCOORD_0" : 2
                    },
                    "indices" : 3
                }
            ]
        }
    ],
    "accessors" : [
        {
            "bufferView" : 0,
            "componentType" : 5126,
            "count" : 6709,
            "max" : [
                1.212174415588379,
                0.11161980032920837,
                1.2042162418365479
            ],
            "min" : [
                -1.2093291282653809,
                -0.4219384491443634,
                -1.208342432975769
            ],
            "type" : "VEC3"
        },
        {
            "bufferView" : 1,
            "componentType" : 5126,
            "count" : 6709,
            "type" : "VEC3"
        },
        {
            "bufferView" : 2,
            "componentType" : 5126,
            "count" : 6709,
            "type" : "VEC2"
        },
        {
            "bufferView" : 3,
            "componentType" : 5123,
            "count" : 39321,
            "type" : "SCALAR"
        }
    ],
    "bufferViews" : [
        {
            "buffer" : 0,
            "byteLength" : 80508,
            "byteOffset" : 0,
            "target" : 34962
        },
        {
            "buffer" : 0,
            "byteLength" : 80508,
            "byteOffset" : 80508,
            "target" : 34962
        },
        {
            "buffer" : 0,
            "byteLength" : 53672,
            "byteOffset" : 161016,
            "target" : 34962
        },
        {
            "buffer" : 0,
            "byteLength" : 78642,
            "byteOffset" : 214688,
            "target" : 34963
        }
    ],
    "buffers" : [
        {
            "byteLength" : 293332,
            "uri" : "data:application/octet-stream;base64,"
        }
    ]
}
