{
    "asset" : {
        "generator" : "Khronos glTF Blender I/O v3.3.32",
        "version" : "2.0"
    },
    "scene" : 0,
    "scenes" : [
        {
            "name" : "Scene",
            "nodes" : [
                1
            ]
        }
    ],
    "nodes" : [
        {
            "mesh" : 0,
            "name" : "Rubble2-colonly"
        },
        {
            "children" : [
                0
            ],
            "mesh" : 1,
            "name" : "Rubble2",
            "scale" : [
                11.844527244567871,
                11.844527244567871,
                11.844527244567871
            ]
        }
    ],
    "meshes" : [
        {
            "name" : "Plane.005",
            "primitives" : [
                {
                    "attributes" : {
                        "POSITION" : 0,
                        "NORMAL" : 1,
                        "TEXCOORD_0" : 2
                    },
                    "indices" : 3
                }
            ]
        },
        {
            "name" : "Plane.007",
            "primitives" : [
                {
                    "attributes" : {
                        "POSITION" : 4,
                        "NORMAL" : 5,
                        "TEXCOORD_0" : 6
                    },
                    "indices" : 7
                }
            ]
        }
    ],
    "accessors" : [
        {
            "bufferView" : 0,
            "componentType" : 5126,
            "count" : 165,
            "max" : [
                0.961609423160553,
                0.26298853754997253,
                0.8623540997505188
            ],
            "min" : [
                -0.9134158492088318,
                0.018541619181632996,
                -0.8944782614707947
            ],
            "type" : "VEC3"
        },
        {
            "bufferView" : 1,
            "componentType" : 5126,
            "count" : 165,
            "type" : "VEC3"
        },
        {
            "bufferView" : 2,
            "componentType" : 5126,
            "count" : 165,
            "type" : "VEC2"
        },
        {
            "bufferView" : 3,
            "componentType" : 5123,
            "count" : 822,
            "type" : "SCALAR"
        },
        {
            "bufferView" : 4,
            "componentType" : 5126,
            "count" : 28234,
            "max" : [
                0.9745274782180786,
                0.27624839544296265,
                0.8690252304077148
            ],
            "min" : [
                -0.9268620610237122,
                0.014213532209396362,
                -0.9098765254020691
            ],
            "type" : "VEC3"
        },
        {
            "bufferView" : 5,
            "componentType" : 5126,
            "count" : 28234,
            "type" : "VEC3"
        },
        {
            "bufferView" : 6,
            "componentType" : 5126,
            "count" : 28234,
            "type" : "VEC2"
        },
        {
            "bufferView" : 7,
            "componentType" : 5123,
            "count" : 167409,
            "type" : "SCALAR"
        }
    ],
    "bufferViews" : [
        {
            "buffer" : 0,
            "byteLength" : 1980,
            "byteOffset" : 0,
            "target" : 34962
        },
        {
            "buffer" : 0,
            "byteLength" : 1980,
            "byteOffset" : 1980,
            "target" : 34962
        },
        {
            "buffer" : 0,
            "byteLength" : 1320,
            "byteOffset" : 3960,
            "target" : 34962
        },
        {
            "buffer" : 0,
            "byteLength" : 1644,
            "byteOffset" : 5280,
            "target" : 34963
        },
        {
            "buffer" : 0,
            "byteLength" : 338808,
            "byteOffset" : 6924,
            "target" : 34962
        },
        {
            "buffer" : 0,
            "byteLength" : 338808,
            "byteOffset" : 345732,
            "target" : 34962
        },
        {
            "buffer" : 0,
            "byteLength" : 225872,
            "byteOffset" : 684540,
            "target" : 34962
        },
        {
            "buffer" : 0,
            "byteLength" : 334818,
            "byteOffset" : 910412,
            "target" : 34963
        }
    ],
    "buffers" : [
        {
            "byteLength" : 1245232,
            "uri" : "data:application/octet-stream;base64,"
        }
    ]
}
