{
    "asset" : {
        "generator" : "Khronos glTF Blender I/O v3.3.32",
        "version" : "2.0"
    },
    "scene" : 0,
    "scenes" : [
        {
            "name" : "Scene",
            "nodes" : [
                0
            ]
        }
    ],
    "nodes" : [
        {
            "mesh" : 0,
            "name" : "Wall1"
        }
    ],
    "meshes" : [
        {
            "name" : "Plane.004",
            "primitives" : [
                {
                    "attributes" : {
                        "POSITION" : 0,
                        "NORMAL" : 1,
                        "TEXCOORD_0" : 2,
                        "COLOR_0" : 3
                    },
                    "indices" : 4
                }
            ]
        }
    ],
    "accessors" : [
        {
            "bufferView" : 0,
            "componentType" : 5126,
            "count" : 8051,
            "max" : [
                1.6141903400421143,
                4.6357855796813965,
                22.965499877929688
            ],
            "min" : [
                -2.676335334777832,
                -0.6901413798332214,
                -22.91283416748047
            ],
            "type" : "VEC3"
        },
        {
            "bufferView" : 1,
            "componentType" : 5126,
            "count" : 8051,
            "type" : "VEC3"
        },
        {
            "bufferView" : 2,
            "componentType" : 5126,
            "count" : 8051,
            "type" : "VEC2"
        },
        {
            "bufferView" : 3,
            "componentType" : 5123,
            "count" : 8051,
            "normalized" : true,
            "type" : "VEC4"
        },
        {
            "bufferView" : 4,
            "componentType" : 5123,
            "count" : 46140,
            "type" : "SCALAR"
        }
    ],
    "bufferViews" : [
        {
            "buffer" : 0,
            "byteLength" : 96612,
            "byteOffset" : 0,
            "target" : 34962
        },
        {
            "buffer" : 0,
            "byteLength" : 96612,
            "byteOffset" : 96612,
            "target" : 34962
        },
        {
            "buffer" : 0,
            "byteLength" : 64408,
            "byteOffset" : 193224,
            "target" : 34962
        },
        {
            "buffer" : 0,
            "byteLength" : 64408,
            "byteOffset" : 257632,
            "target" : 34962
        },
        {
            "buffer" : 0,
            "byteLength" : 92280,
            "byteOffset" : 322040,
            "target" : 34963
        }
    ],
    "buffers" : [
        {
            "byteLength" : 414320,
            "uri" : "data:application/octet-stream;base64,"
        }
    ]
}
