{
    "asset" : {
        "generator" : "Khronos glTF Blender I/O v3.3.32",
        "version" : "2.0"
    },
    "scene" : 0,
    "scenes" : [
        {
            "name" : "Scene",
            "nodes" : [
                1
            ]
        }
    ],
    "nodes" : [
        {
            "mesh" : 0,
            "name" : "Wall2-colonly"
        },
        {
            "children" : [
                0
            ],
            "mesh" : 1,
            "name" : "Wall2"
        }
    ],
    "meshes" : [
        {
            "name" : "Plane.007",
            "primitives" : [
                {
                    "attributes" : {
                        "POSITION" : 0,
                        "NORMAL" : 1,
                        "TEXCOORD_0" : 2,
                        "COLOR_0" : 3
                    },
                    "indices" : 4
                }
            ]
        },
        {
            "name" : "Plane.006",
            "primitives" : [
                {
                    "attributes" : {
                        "POSITION" : 5,
                        "NORMAL" : 6,
                        "TEXCOORD_0" : 7,
                        "COLOR_0" : 8
                    },
                    "indices" : 9
                }
            ]
        }
    ],
    "accessors" : [
        {
            "bufferView" : 0,
            "componentType" : 5126,
            "count" : 155,
            "max" : [
                9.3733491897583,
                5.008660793304443,
                8.683727264404297
            ],
            "min" : [
                -10.317391395568848,
                -0.5825102925300598,
                -9.598742485046387
            ],
            "type" : "VEC3"
        },
        {
            "bufferView" : 1,
            "componentType" : 5126,
            "count" : 155,
            "type" : "VEC3"
        },
        {
            "bufferView" : 2,
            "componentType" : 5126,
            "count" : 155,
            "type" : "VEC2"
        },
        {
            "bufferView" : 3,
            "componentType" : 5123,
            "count" : 155,
            "normalized" : true,
            "type" : "VEC4"
        },
        {
            "bufferView" : 4,
            "componentType" : 5123,
            "count" : 627,
            "type" : "SCALAR"
        },
        {
            "bufferView" : 5,
            "componentType" : 5126,
            "count" : 8051,
            "max" : [
                9.518961906433105,
                4.998730182647705,
                8.626775741577148
            ],
            "min" : [
                -10.36620044708252,
                -0.5399698615074158,
                -9.581055641174316
            ],
            "type" : "VEC3"
        },
        {
            "bufferView" : 6,
            "componentType" : 5126,
            "count" : 8051,
            "type" : "VEC3"
        },
        {
            "bufferView" : 7,
            "componentType" : 5126,
            "count" : 8051,
            "type" : "VEC2"
        },
        {
            "bufferView" : 8,
            "componentType" : 5123,
            "count" : 8051,
            "normalized" : true,
            "type" : "VEC4"
        },
        {
            "bufferView" : 9,
            "componentType" : 5123,
            "count" : 46140,
            "type" : "SCALAR"
        }
    ],
    "bufferViews" : [
        {
            "buffer" : 0,
            "byteLength" : 1860,
            "byteOffset" : 0,
            "target" : 34962
        },
        {
            "buffer" : 0,
            "byteLength" : 1860,
            "byteOffset" : 1860,
            "target" : 34962
        },
        {
            "buffer" : 0,
            "byteLength" : 1240,
            "byteOffset" : 3720,
            "target" : 34962
        },
        {
            "buffer" : 0,
            "byteLength" : 1240,
            "byteOffset" : 4960,
            "target" : 34962
        },
        {
            "buffer" : 0,
            "byteLength" : 1254,
            "byteOffset" : 6200,
            "target" : 34963
        },
        {
            "buffer" : 0,
            "byteLength" : 96612,
            "byteOffset" : 7456,
            "target" : 34962
        },
        {
            "buffer" : 0,
            "byteLength" : 96612,
            "byteOffset" : 104068,
            "target" : 34962
        },
        {
            "buffer" : 0,
            "byteLength" : 64408,
            "byteOffset" : 200680,
            "target" : 34962
        },
        {
            "buffer" : 0,
            "byteLength" : 64408,
            "byteOffset" : 265088,
            "target" : 34962
        },
        {
            "buffer" : 0,
            "byteLength" : 92280,
            "byteOffset" : 329496,
            "target" : 34963
        }
    ],
    "buffers" : [
        {
            "byteLength" : 421776,
            "uri" : "data:application/octet-stream;base64,"
        }
    ]
}
