{
    "asset" : {
        "generator" : "Khronos glTF Blender I/O v3.3.32",
        "version" : "2.0"
    },
    "scene" : 0,
    "scenes" : [
        {
            "name" : "Scene",
            "nodes" : [
                0
            ]
        }
    ],
    "nodes" : [
        {
            "mesh" : 0,
            "name" : "Plane.001",
            "translation" : [
                0,
                -3.7497403621673584,
                0
            ]
        }
    ],
    "meshes" : [
        {
            "name" : "Plane.001",
            "primitives" : [
                {
                    "attributes" : {
                        "POSITION" : 0,
                        "NORMAL" : 1,
                        "TEXCOORD_0" : 2,
                        "COLOR_0" : 3
                    },
                    "indices" : 4
                }
            ]
        }
    ],
    "accessors" : [
        {
            "bufferView" : 0,
            "componentType" : 5126,
            "count" : 8847,
            "max" : [
                70.44696807861328,
                80.44215393066406,
                28.8953857421875
            ],
            "min" : [
                -76.8363265991211,
                -4.884128093719482,
                -347.1182861328125
            ],
            "type" : "VEC3"
        },
        {
            "bufferView" : 1,
            "componentType" : 5126,
            "count" : 8847,
            "type" : "VEC3"
        },
        {
            "bufferView" : 2,
            "componentType" : 5126,
            "count" : 8847,
            "type" : "VEC2"
        },
        {
            "bufferView" : 3,
            "componentType" : 5123,
            "count" : 8847,
            "normalized" : true,
            "type" : "VEC4"
        },
        {
            "bufferView" : 4,
            "componentType" : 5123,
            "count" : 50928,
            "type" : "SCALAR"
        }
    ],
    "bufferViews" : [
        {
            "buffer" : 0,
            "byteLength" : 106164,
            "byteOffset" : 0,
            "target" : 34962
        },
        {
            "buffer" : 0,
            "byteLength" : 106164,
            "byteOffset" : 106164,
            "target" : 34962
        },
        {
            "buffer" : 0,
            "byteLength" : 70776,
            "byteOffset" : 212328,
            "target" : 34962
        },
        {
            "buffer" : 0,
            "byteLength" : 70776,
            "byteOffset" : 283104,
            "target" : 34962
        },
        {
            "buffer" : 0,
            "byteLength" : 101856,
            "byteOffset" : 353880,
            "target" : 34963
        }
    ],
    "buffers" : [
        {
            "byteLength" : 455736,
            "uri" : "data:application/octet-stream;base64,"
        }
    ]
}
