{
    "asset" : {
        "generator" : "Khronos glTF Blender I/O v3.3.32",
        "version" : "2.0"
    },
    "scene" : 0,
    "scenes" : [
        {
            "name" : "Scene",
            "nodes" : [
                0,
                1,
                2
            ]
        }
    ],
    "nodes" : [
        {
            "mesh" : 0,
            "name" : "WoodenParts",
            "translation" : [
                0,
                0.01898154243826866,
                0
            ]
        },
        {
            "mesh" : 1,
            "name" : "MetalParts"
        },
        {
            "mesh" : 2,
            "name" : "Coal",
            "translation" : [
                0,
                1.7476379871368408,
                0.029582995921373367
            ]
        }
    ],
    "meshes" : [
        {
            "name" : "Cube.004",
            "primitives" : [
                {
                    "attributes" : {
                        "POSITION" : 0,
                        "NORMAL" : 1,
                        "TEXCOORD_0" : 2
                    },
                    "indices" : 3
                },
                {
                    "attributes" : {
                        "POSITION" : 4,
                        "NORMAL" : 5,
                        "TEXCOORD_0" : 6
                    },
                    "indices" : 7
                }
            ]
        },
        {
            "name" : "Cube.009",
            "primitives" : [
                {
                    "attributes" : {
                        "POSITION" : 8,
                        "NORMAL" : 9,
                        "TEXCOORD_0" : 10
                    },
                    "indices" : 11
                },
                {
                    "attributes" : {
                        "POSITION" : 12,
                        "NORMAL" : 13,
                        "TEXCOORD_0" : 14
                    },
                    "indices" : 15
                }
            ]
        },
        {
            "name" : "Plane.002",
            "primitives" : [
                {
                    "attributes" : {
                        "POSITION" : 16,
                        "NORMAL" : 17,
                        "TEXCOORD_0" : 18
                    },
                    "indices" : 19
                }
            ]
        }
    ],
    "accessors" : [
        {
            "bufferView" : 0,
            "componentType" : 5126,
            "count" : 88,
            "max" : [
                0.8871964812278748,
                1.5159660577774048,
                0.8679143190383911
            ],
            "min" : [
                -0.8871964812278748,
                0.4056450426578522,
                -0.9115192890167236
            ],
            "type" : "VEC3"
        },
        {
            "bufferView" : 1,
            "componentType" : 5126,
            "count" : 88,
            "type" : "VEC3"
        },
        {
            "bufferView" : 2,
            "componentType" : 5126,
            "count" : 88,
            "type" : "VEC2"
        },
        {
            "bufferView" : 3,
            "componentType" : 5123,
            "count" : 156,
            "type" : "SCALAR"
        },
        {
            "bufferView" : 4,
            "componentType" : 5126,
            "count" : 258,
            "max" : [
                0.8479675054550171,
                1.549424409866333,
                1.0297771692276
            ],
            "min" : [
                -0.8479881286621094,
                0.24991963803768158,
                -1.1000211238861084
            ],
            "type" : "VEC3"
        },
        {
            "bufferView" : 5,
            "componentType" : 5126,
            "count" : 258,
            "type" : "VEC3"
        },
        {
            "bufferView" : 6,
            "componentType" : 5126,
            "count" : 258,
            "type" : "VEC2"
        },
        {
            "bufferView" : 7,
            "componentType" : 5123,
            "count" : 612,
            "type" : "SCALAR"
        },
        {
            "bufferView" : 8,
            "componentType" : 5126,
            "count" : 620,
            "max" : [
                1.0093356370925903,
                1.6066676378250122,
                0.9815212488174438
            ],
            "min" : [
                -1.0093356370925903,
                0.25488072633743286,
                -0.8683943152427673
            ],
            "type" : "VEC3"
        },
        {
            "bufferView" : 9,
            "componentType" : 5126,
            "count" : 620,
            "type" : "VEC3"
        },
        {
            "bufferView" : 10,
            "componentType" : 5126,
            "count" : 620,
            "type" : "VEC2"
        },
        {
            "bufferView" : 11,
            "componentType" : 5123,
            "count" : 1464,
            "type" : "SCALAR"
        },
        {
            "bufferView" : 12,
            "componentType" : 5126,
            "count" : 3939,
            "max" : [
                1.0204356908798218,
                1.4746203422546387,
                1.151454210281372
            ],
            "min" : [
                -1.0204356908798218,
                -0.02300676703453064,
                -0.8942539691925049
            ],
            "type" : "VEC3"
        },
        {
            "bufferView" : 13,
            "componentType" : 5126,
            "count" : 3939,
            "type" : "VEC3"
        },
        {
            "bufferView" : 14,
            "componentType" : 5126,
            "count" : 3939,
            "type" : "VEC2"
        },
        {
            "bufferView" : 15,
            "componentType" : 5123,
            "count" : 13008,
            "type" : "SCALAR"
        },
        {
            "bufferView" : 16,
            "componentType" : 5126,
            "count" : 5717,
            "max" : [
                0.8871204257011414,
                0.07952690124511719,
                0.8882980346679688
            ],
            "min" : [
                -0.8763488531112671,
                -0.44438397884368896,
                -0.8996908664703369
            ],
            "type" : "VEC3"
        },
        {
            "bufferView" : 17,
            "componentType" : 5126,
            "count" : 5717,
            "type" : "VEC3"
        },
        {
            "bufferView" : 18,
            "componentType" : 5126,
            "count" : 5717,
            "type" : "VEC2"
        },
        {
            "bufferView" : 19,
            "componentType" : 5123,
            "count" : 33435,
            "type" : "SCALAR"
        }
    ],
    "bufferViews" : [
        {
            "buffer" : 0,
            "byteLength" : 1056,
            "byteOffset" : 0,
            "target" : 34962
        },
        {
            "buffer" : 0,
            "byteLength" : 1056,
            "byteOffset" : 1056,
            "target" : 34962
        },
        {
            "buffer" : 0,
            "byteLength" : 704,
            "byteOffset" : 2112,
            "target" : 34962
        },
        {
            "buffer" : 0,
            "byteLength" : 312,
            "byteOffset" : 2816,
            "target" : 34963
        },
        {
            "buffer" : 0,
            "byteLength" : 3096,
            "byteOffset" : 3128,
            "target" : 34962
        },
        {
            "buffer" : 0,
            "byteLength" : 3096,
            "byteOffset" : 6224,
            "target" : 34962
        },
        {
            "buffer" : 0,
            "byteLength" : 2064,
            "byteOffset" : 9320,
            "target" : 34962
        },
        {
            "buffer" : 0,
            "byteLength" : 1224,
            "byteOffset" : 11384,
            "target" : 34963
        },
        {
            "buffer" : 0,
            "byteLength" : 7440,
            "byteOffset" : 12608,
            "target" : 34962
        },
        {
            "buffer" : 0,
            "byteLength" : 7440,
            "byteOffset" : 20048,
            "target" : 34962
        },
        {
            "buffer" : 0,
            "byteLength" : 4960,
            "byteOffset" : 27488,
            "target" : 34962
        },
        {
            "buffer" : 0,
            "byteLength" : 2928,
            "byteOffset" : 32448,
            "target" : 34963
        },
        {
            "buffer" : 0,
            "byteLength" : 47268,
            "byteOffset" : 35376,
            "target" : 34962
        },
        {
            "buffer" : 0,
            "byteLength" : 47268,
            "byteOffset" : 82644,
            "target" : 34962
        },
        {
            "buffer" : 0,
            "byteLength" : 31512,
            "byteOffset" : 129912,
            "target" : 34962
        },
        {
            "buffer" : 0,
            "byteLength" : 26016,
            "byteOffset" : 161424,
            "target" : 34963
        },
        {
            "buffer" : 0,
            "byteLength" : 68604,
            "byteOffset" : 187440,
            "target" : 34962
        },
        {
            "buffer" : 0,
            "byteLength" : 68604,
            "byteOffset" : 256044,
            "target" : 34962
        },
        {
            "buffer" : 0,
            "byteLength" : 45736,
            "byteOffset" : 324648,
            "target" : 34962
        },
        {
            "buffer" : 0,
            "byteLength" : 66870,
            "byteOffset" : 370384,
            "target" : 34963
        }
    ],
    "buffers" : [
        {
            "byteLength" : 437256,
            "uri" : "data:application/octet-stream;base64,"
        }
    ]
}
