{
    "asset" : {
        "generator" : "Khronos glTF Blender I/O v3.3.32",
        "version" : "2.0"
    },
    "scene" : 0,
    "scenes" : [
        {
            "name" : "Scene",
            "nodes" : [
                0
            ]
        }
    ],
    "nodes" : [
        {
            "mesh" : 0,
            "name" : "Clock"
        }
    ],
    "meshes" : [
        {
            "name" : "Cylinder.002",
            "primitives" : [
                {
                    "attributes" : {
                        "POSITION" : 0,
                        "NORMAL" : 1,
                        "TEXCOORD_0" : 2,
                        "COLOR_0" : 3
                    },
                    "indices" : 4
                }
            ]
        }
    ],
    "accessors" : [
        {
            "bufferView" : 0,
            "componentType" : 5126,
            "count" : 1957,
            "max" : [
                0.08769931644201279,
                0.6033324003219604,
                0.199175164103508
            ],
            "min" : [
                -0.06931553035974503,
                -0.1974758803844452,
                -0.19917528331279755
            ],
            "type" : "VEC3"
        },
        {
            "bufferView" : 1,
            "componentType" : 5126,
            "count" : 1957,
            "type" : "VEC3"
        },
        {
            "bufferView" : 2,
            "componentType" : 5126,
            "count" : 1957,
            "type" : "VEC2"
        },
        {
            "bufferView" : 3,
            "componentType" : 5123,
            "count" : 1957,
            "normalized" : true,
            "type" : "VEC4"
        },
        {
            "bufferView" : 4,
            "componentType" : 5123,
            "count" : 8256,
            "type" : "SCALAR"
        }
    ],
    "bufferViews" : [
        {
            "buffer" : 0,
            "byteLength" : 23484,
            "byteOffset" : 0,
            "target" : 34962
        },
        {
            "buffer" : 0,
            "byteLength" : 23484,
            "byteOffset" : 23484,
            "target" : 34962
        },
        {
            "buffer" : 0,
            "byteLength" : 15656,
            "byteOffset" : 46968,
            "target" : 34962
        },
        {
            "buffer" : 0,
            "byteLength" : 15656,
            "byteOffset" : 62624,
            "target" : 34962
        },
        {
            "buffer" : 0,
            "byteLength" : 16512,
            "byteOffset" : 78280,
            "target" : 34963
        }
    ],
    "buffers" : [
        {
            "byteLength" : 94792,
            "uri" : "data:application/octet-stream;base64,"
        }
    ]
}
