{
    "asset" : {
        "generator" : "Khronos glTF Blender I/O v3.3.32",
        "version" : "2.0"
    },
    "scene" : 0,
    "scenes" : [
        {
            "name" : "Scene",
            "nodes" : [
                0,
                1
            ]
        }
    ],
    "nodes" : [
        {
            "mesh" : 0,
            "name" : "Box",
            "translation" : [
                2.4678025245666504,
                -0.1824413686990738,
                0
            ]
        },
        {
            "mesh" : 1,
            "name" : "Cylinder",
            "translation" : [
                1.9775649309158325,
                0.9346468448638916,
                0
            ]
        }
    ],
    "meshes" : [
        {
            "name" : "Cube.018",
            "primitives" : [
                {
                    "attributes" : {
                        "POSITION" : 0,
                        "NORMAL" : 1,
                        "TEXCOORD_0" : 2
                    },
                    "indices" : 3
                }
            ]
        },
        {
            "name" : "Cylinder.001",
            "primitives" : [
                {
                    "attributes" : {
                        "POSITION" : 4,
                        "NORMAL" : 5,
                        "TEXCOORD_0" : 6
                    },
                    "indices" : 7
                }
            ]
        }
    ],
    "accessors" : [
        {
            "bufferView" : 0,
            "componentType" : 5126,
            "count" : 1430,
            "max" : [
                0.46312758326530457,
                2.5530507564544678,
                1.0933120250701904
            ],
            "min" : [
                -0.7689135074615479,
                -0.030662059783935547,
                -1.0845402479171753
            ],
            "type" : "VEC3"
        },
        {
            "bufferView" : 1,
            "componentType" : 5126,
            "count" : 1430,
            "type" : "VEC3"
        },
        {
            "bufferView" : 2,
            "componentType" : 5126,
            "count" : 1430,
            "type" : "VEC2"
        },
        {
            "bufferView" : 3,
            "componentType" : 5123,
            "count" : 2199,
            "type" : "SCALAR"
        },
        {
            "bufferView" : 4,
            "componentType" : 5126,
            "count" : 912,
            "max" : [
                0.43808770179748535,
                0.25726065039634705,
                0.8822649717330933
            ],
            "min" : [
                -0.2605176866054535,
                -0.03539219871163368,
                -0.8822649717330933
            ],
            "type" : "VEC3"
        },
        {
            "bufferView" : 5,
            "componentType" : 5126,
            "count" : 912,
            "type" : "VEC3"
        },
        {
            "bufferView" : 6,
            "componentType" : 5126,
            "count" : 912,
            "type" : "VEC2"
        },
        {
            "bufferView" : 7,
            "componentType" : 5123,
            "count" : 1392,
            "type" : "SCALAR"
        }
    ],
    "bufferViews" : [
        {
            "buffer" : 0,
            "byteLength" : 17160,
            "byteOffset" : 0,
            "target" : 34962
        },
        {
            "buffer" : 0,
            "byteLength" : 17160,
            "byteOffset" : 17160,
            "target" : 34962
        },
        {
            "buffer" : 0,
            "byteLength" : 11440,
            "byteOffset" : 34320,
            "target" : 34962
        },
        {
            "buffer" : 0,
            "byteLength" : 4398,
            "byteOffset" : 45760,
            "target" : 34963
        },
        {
            "buffer" : 0,
            "byteLength" : 10944,
            "byteOffset" : 50160,
            "target" : 34962
        },
        {
            "buffer" : 0,
            "byteLength" : 10944,
            "byteOffset" : 61104,
            "target" : 34962
        },
        {
            "buffer" : 0,
            "byteLength" : 7296,
            "byteOffset" : 72048,
            "target" : 34962
        },
        {
            "buffer" : 0,
            "byteLength" : 2784,
            "byteOffset" : 79344,
            "target" : 34963
        }
    ],
    "buffers" : [
        {
            "byteLength" : 82128,
            "uri" : "data:application/octet-stream;base64,"
        }
    ]
}
