{
    "asset" : {
        "generator" : "Khronos glTF Blender I/O v3.3.32",
        "version" : "2.0"
    },
    "scene" : 0,
    "scenes" : [
        {
            "name" : "Scene",
            "nodes" : [
                0
            ]
        }
    ],
    "nodes" : [
        {
            "mesh" : 0,
            "name" : "Plane.001",
            "translation" : [
                0,
                -3.7497403621673584,
                0
            ]
        }
    ],
    "meshes" : [
        {
            "name" : "Plane.001",
            "primitives" : [
                {
                    "attributes" : {
                        "POSITION" : 0,
                        "NORMAL" : 1,
                        "TEXCOORD_0" : 2,
                        "COLOR_0" : 3
                    },
                    "indices" : 4
                }
            ]
        }
    ],
    "accessors" : [
        {
            "bufferView" : 0,
            "componentType" : 5126,
            "count" : 9281,
            "max" : [
                336.30926513671875,
                100.84941864013672,
                702.0487670898438
            ],
            "min" : [
                -315.4467468261719,
                -128.67295837402344,
                -625.1982421875
            ],
            "type" : "VEC3"
        },
        {
            "bufferView" : 1,
            "componentType" : 5126,
            "count" : 9281,
            "type" : "VEC3"
        },
        {
            "bufferView" : 2,
            "componentType" : 5126,
            "count" : 9281,
            "type" : "VEC2"
        },
        {
            "bufferView" : 3,
            "componentType" : 5123,
            "count" : 9281,
            "normalized" : true,
            "type" : "VEC4"
        },
        {
            "bufferView" : 4,
            "componentType" : 5123,
            "count" : 52242,
            "type" : "SCALAR"
        }
    ],
    "bufferViews" : [
        {
            "buffer" : 0,
            "byteLength" : 111372,
            "byteOffset" : 0,
            "target" : 34962
        },
        {
            "buffer" : 0,
            "byteLength" : 111372,
            "byteOffset" : 111372,
            "target" : 34962
        },
        {
            "buffer" : 0,
            "byteLength" : 74248,
            "byteOffset" : 222744,
            "target" : 34962
        },
        {
            "buffer" : 0,
            "byteLength" : 74248,
            "byteOffset" : 296992,
            "target" : 34962
        },
        {
            "buffer" : 0,
            "byteLength" : 104484,
            "byteOffset" : 371240,
            "target" : 34963
        }
    ],
    "buffers" : [
        {
            "byteLength" : 475724,
            "uri" : "data:application/octet-stream;base64,"
        }
    ]
}
