{
    "asset" : {
        "generator" : "Khronos glTF Blender I/O v3.3.32",
        "version" : "2.0"
    },
    "scene" : 0,
    "scenes" : [
        {
            "name" : "Scene",
            "nodes" : [
                1
            ]
        }
    ],
    "nodes" : [
        {
            "mesh" : 0,
            "name" : "RefMesh-colonly"
        },
        {
            "children" : [
                0
            ],
            "mesh" : 1,
            "name" : "RefMesh",
            "scale" : [
                13.279030799865723,
                13.279030799865723,
                13.279030799865723
            ],
            "translation" : [
                0,
                0.17846578359603882,
                0
            ]
        }
    ],
    "meshes" : [
        {
            "name" : "Plane.001",
            "primitives" : [
                {
                    "attributes" : {
                        "POSITION" : 0,
                        "NORMAL" : 1
                    },
                    "indices" : 2
                }
            ]
        },
        {
            "name" : "Plane.003",
            "primitives" : [
                {
                    "attributes" : {
                        "POSITION" : 3,
                        "NORMAL" : 4,
                        "TEXCOORD_0" : 5
                    },
                    "indices" : 6
                }
            ]
        }
    ],
    "accessors" : [
        {
            "bufferView" : 0,
            "componentType" : 5126,
            "count" : 3891,
            "max" : [
                0.8520476222038269,
                0.21885056793689728,
                0.652337908744812
            ],
            "min" : [
                -0.8710557222366333,
                -0.05377375707030296,
                -0.8726176619529724
            ],
            "type" : "VEC3"
        },
        {
            "bufferView" : 1,
            "componentType" : 5126,
            "count" : 3891,
            "type" : "VEC3"
        },
        {
            "bufferView" : 2,
            "componentType" : 5123,
            "count" : 3969,
            "type" : "SCALAR"
        },
        {
            "bufferView" : 3,
            "componentType" : 5126,
            "count" : 61157,
            "max" : [
                0.8454849720001221,
                0.2101481407880783,
                0.6553411483764648
            ],
            "min" : [
                -0.8642787933349609,
                -0.04223089665174484,
                -0.8663355112075806
            ],
            "type" : "VEC3"
        },
        {
            "bufferView" : 4,
            "componentType" : 5126,
            "count" : 61157,
            "type" : "VEC3"
        },
        {
            "bufferView" : 5,
            "componentType" : 5126,
            "count" : 61157,
            "type" : "VEC2"
        },
        {
            "bufferView" : 6,
            "componentType" : 5123,
            "count" : 164007,
            "type" : "SCALAR"
        }
    ],
    "bufferViews" : [
        {
            "buffer" : 0,
            "byteLength" : 46692,
            "byteOffset" : 0,
            "target" : 34962
        },
        {
            "buffer" : 0,
            "byteLength" : 46692,
            "byteOffset" : 46692,
            "target" : 34962
        },
        {
            "buffer" : 0,
            "byteLength" : 7938,
            "byteOffset" : 93384,
            "target" : 34963
        },
        {
            "buffer" : 0,
            "byteLength" : 733884,
            "byteOffset" : 101324,
            "target" : 34962
        },
        {
            "buffer" : 0,
            "byteLength" : 733884,
            "byteOffset" : 835208,
            "target" : 34962
        },
        {
            "buffer" : 0,
            "byteLength" : 489256,
            "byteOffset" : 1569092,
            "target" : 34962
        },
        {
            "buffer" : 0,
            "byteLength" : 328014,
            "byteOffset" : 2058348,
            "target" : 34963
        }
    ],
    "buffers" : [
        {
            "byteLength" : 2386364,
            "uri" : "data:application/octet-stream;base64,"
        }
    ]
}
