{
    "asset" : {
        "generator" : "Khronos glTF Blender I/O v3.3.32",
        "version" : "2.0"
    },
    "scene" : 0,
    "scenes" : [
        {
            "name" : "Scene",
            "nodes" : [
                0
            ]
        }
    ],
    "nodes" : [
        {
            "mesh" : 0,
            "name" : "RefMesh",
            "scale" : [
                13.279030799865723,
                13.279030799865723,
                13.279030799865723
            ],
            "translation" : [
                0,
                0.17846578359603882,
                0
            ]
        }
    ],
    "meshes" : [
        {
            "name" : "Plane.003",
            "primitives" : [
                {
                    "attributes" : {
                        "POSITION" : 0,
                        "NORMAL" : 1,
                        "TEXCOORD_0" : 2
                    },
                    "indices" : 3
                }
            ]
        }
    ],
    "accessors" : [
        {
            "bufferView" : 0,
            "componentType" : 5126,
            "count" : 61157,
            "max" : [
                0.8454849720001221,
                0.2101481407880783,
                0.6553411483764648
            ],
            "min" : [
                -0.8642787933349609,
                -0.04223089665174484,
                -0.8663355112075806
            ],
            "type" : "VEC3"
        },
        {
            "bufferView" : 1,
            "componentType" : 5126,
            "count" : 61157,
            "type" : "VEC3"
        },
        {
            "bufferView" : 2,
            "componentType" : 5126,
            "count" : 61157,
            "type" : "VEC2"
        },
        {
            "bufferView" : 3,
            "componentType" : 5123,
            "count" : 164007,
            "type" : "SCALAR"
        }
    ],
    "bufferViews" : [
        {
            "buffer" : 0,
            "byteLength" : 733884,
            "byteOffset" : 0,
            "target" : 34962
        },
        {
            "buffer" : 0,
            "byteLength" : 733884,
            "byteOffset" : 733884,
            "target" : 34962
        },
        {
            "buffer" : 0,
            "byteLength" : 489256,
            "byteOffset" : 1467768,
            "target" : 34962
        },
        {
            "buffer" : 0,
            "byteLength" : 328014,
            "byteOffset" : 1957024,
            "target" : 34963
        }
    ],
    "buffers" : [
        {
            "byteLength" : 2285040,
            "uri" : "data:application/octet-stream;base64,"
        }
    ]
}
