{
    "asset" : {
        "generator" : "Khronos glTF Blender I/O v3.3.32",
        "version" : "2.0"
    },
    "scene" : 0,
    "scenes" : [
        {
            "name" : "Scene",
            "nodes" : [
                0
            ]
        }
    ],
    "nodes" : [
        {
            "mesh" : 0,
            "name" : "NaturalCavesMesh",
            "scale" : [
                10.08842945098877,
                10.08842945098877,
                10.08842945098877
            ],
            "translation" : [
                11.34090518951416,
                -4.810267448425293,
                -359.89019775390625
            ]
        }
    ],
    "meshes" : [
        {
            "name" : "mesh.001",
            "primitives" : [
                {
                    "attributes" : {
                        "POSITION" : 0,
                        "NORMAL" : 1,
                        "TEXCOORD_0" : 2,
                        "COLOR_0" : 3
                    },
                    "indices" : 4
                }
            ]
        }
    ],
    "accessors" : [
        {
            "bufferView" : 0,
            "componentType" : 5126,
            "count" : 9744,
            "max" : [
                16.26800537109375,
                2.6601972579956055,
                4.5529913902282715
            ],
            "min" : [
                -2.26176381111145,
                -2.451436996459961,
                -22.549766540527344
            ],
            "type" : "VEC3"
        },
        {
            "bufferView" : 1,
            "componentType" : 5126,
            "count" : 9744,
            "type" : "VEC3"
        },
        {
            "bufferView" : 2,
            "componentType" : 5126,
            "count" : 9744,
            "type" : "VEC2"
        },
        {
            "bufferView" : 3,
            "componentType" : 5123,
            "count" : 9744,
            "normalized" : true,
            "type" : "VEC4"
        },
        {
            "bufferView" : 4,
            "componentType" : 5123,
            "count" : 53160,
            "type" : "SCALAR"
        }
    ],
    "bufferViews" : [
        {
            "buffer" : 0,
            "byteLength" : 116928,
            "byteOffset" : 0,
            "target" : 34962
        },
        {
            "buffer" : 0,
            "byteLength" : 116928,
            "byteOffset" : 116928,
            "target" : 34962
        },
        {
            "buffer" : 0,
            "byteLength" : 77952,
            "byteOffset" : 233856,
            "target" : 34962
        },
        {
            "buffer" : 0,
            "byteLength" : 77952,
            "byteOffset" : 311808,
            "target" : 34962
        },
        {
            "buffer" : 0,
            "byteLength" : 106320,
            "byteOffset" : 389760,
            "target" : 34963
        }
    ],
    "buffers" : [
        {
            "byteLength" : 496080,
            "uri" : "data:application/octet-stream;base64,"
        }
    ]
}
