{
    "asset" : {
        "generator" : "Khronos glTF Blender I/O v3.3.32",
        "version" : "2.0"
    },
    "scene" : 0,
    "scenes" : [
        {
            "name" : "Scene",
            "nodes" : [
                0,
                1,
                2,
                3,
                4,
                5,
                6,
                7,
                8,
                9,
                10
            ]
        }
    ],
    "nodes" : [
        {
            "mesh" : 0,
            "name" : "TempleWallPillar",
            "rotation" : [
                0,
                0.7071068286895752,
                0,
                0.7071068286895752
            ],
            "scale" : [
                0.5,
                0.5,
                0.5
            ],
            "translation" : [
                43.21126174926758,
                -31.26169204711914,
                -376.8858337402344
            ]
        },
        {
            "mesh" : 1,
            "name" : "TempleWallPillar.001",
            "rotation" : [
                0,
                0.7071068286895752,
                0,
                0.7071068286895752
            ],
            "scale" : [
                0.5,
                0.5,
                0.5
            ],
            "translation" : [
                72.21125793457031,
                -31.26169204711914,
                -376.8858337402344
            ]
        },
        {
            "mesh" : 2,
            "name" : "TempleWallPillar.002",
            "rotation" : [
                0,
                0.7071068286895752,
                0,
                0.7071068286895752
            ],
            "scale" : [
                0.5,
                0.5,
                0.5
            ],
            "translation" : [
                105.21125793457031,
                -31.26169204711914,
                -376.8858337402344
            ]
        },
        {
            "mesh" : 3,
            "name" : "TempleWallPillar.003",
            "rotation" : [
                0,
                0.7071068286895752,
                0,
                0.7071068286895752
            ],
            "scale" : [
                0.5,
                0.5,
                0.5
            ],
            "translation" : [
                152.31158447265625,
                -31.26169204711914,
                -376.8858337402344
            ]
        },
        {
            "mesh" : 4,
            "name" : "TempleWallPillar.004",
            "rotation" : [
                0,
                1,
                0,
                7.549790126404332e-08
            ],
            "scale" : [
                0.5,
                0.5,
                0.5
            ],
            "translation" : [
                152.31158447265625,
                -31.26169204711914,
                -422.254638671875
            ]
        },
        {
            "mesh" : 5,
            "name" : "TempleWallPillar.005",
            "rotation" : [
                0,
                1,
                0,
                7.549790126404332e-08
            ],
            "scale" : [
                0.5,
                0.5,
                0.5
            ],
            "translation" : [
                152.31158447265625,
                -31.26169204711914,
                -470.254638671875
            ]
        },
        {
            "mesh" : 6,
            "name" : "TempleWallPillar.006",
            "rotation" : [
                0,
                1,
                0,
                7.549790126404332e-08
            ],
            "scale" : [
                0.5,
                0.5,
                0.5
            ],
            "translation" : [
                152.31158447265625,
                -31.26169204711914,
                -511.254638671875
            ]
        },
        {
            "mesh" : 7,
            "name" : "TempleWallPillar.007",
            "rotation" : [
                0,
                0.7071068286895752,
                0,
                0.7071068286895752
            ],
            "scale" : [
                0.5,
                0.5,
                0.5
            ],
            "translation" : [
                152.31158447265625,
                -31.26169204711914,
                -548.8299560546875
            ]
        },
        {
            "mesh" : 8,
            "name" : "TempleWallPillar.008",
            "rotation" : [
                0,
                0.7071068286895752,
                0,
                0.7071068286895752
            ],
            "scale" : [
                0.5,
                0.5,
                0.5
            ],
            "translation" : [
                43.21126174926758,
                -31.26169204711914,
                -547.8299560546875
            ]
        },
        {
            "mesh" : 9,
            "name" : "TempleWallPillar.009",
            "rotation" : [
                0,
                0.7071068286895752,
                0,
                0.7071068286895752
            ],
            "scale" : [
                0.5,
                0.5,
                0.5
            ],
            "translation" : [
                74.21125793457031,
                -31.26169204711914,
                -547.8299560546875
            ]
        },
        {
            "mesh" : 10,
            "name" : "TempleWallPillar.010",
            "rotation" : [
                0,
                0.7071068286895752,
                0,
                0.7071068286895752
            ],
            "scale" : [
                0.5,
                0.5,
                0.5
            ],
            "translation" : [
                108.21125793457031,
                -31.26169204711914,
                -547.8299560546875
            ]
        }
    ],
    "meshes" : [
        {
            "name" : "Cube.072",
            "primitives" : [
                {
                    "attributes" : {
                        "POSITION" : 0,
                        "NORMAL" : 1,
                        "TEXCOORD_0" : 2
                    },
                    "indices" : 3
                }
            ]
        },
        {
            "name" : "Cube.073",
            "primitives" : [
                {
                    "attributes" : {
                        "POSITION" : 4,
                        "NORMAL" : 5,
                        "TEXCOORD_0" : 6
                    },
                    "indices" : 7
                }
            ]
        },
        {
            "name" : "Cube.074",
            "primitives" : [
                {
                    "attributes" : {
                        "POSITION" : 8,
                        "NORMAL" : 9,
                        "TEXCOORD_0" : 10
                    },
                    "indices" : 11
                }
            ]
        },
        {
            "name" : "Cube.075",
            "primitives" : [
                {
                    "attributes" : {
                        "POSITION" : 12,
                        "NORMAL" : 13,
                        "TEXCOORD_0" : 14
                    },
                    "indices" : 15
                }
            ]
        },
        {
            "name" : "Cube.076",
            "primitives" : [
                {
                    "attributes" : {
                        "POSITION" : 16,
                        "NORMAL" : 17,
                        "TEXCOORD_0" : 18
                    },
                    "indices" : 19
                }
            ]
        },
        {
            "name" : "Cube.077",
            "primitives" : [
                {
                    "attributes" : {
                        "POSITION" : 20,
                        "NORMAL" : 21,
                        "TEXCOORD_0" : 22
                    },
                    "indices" : 23
                }
            ]
        },
        {
            "name" : "Cube.078",
            "primitives" : [
                {
                    "attributes" : {
                        "POSITION" : 24,
                        "NORMAL" : 25,
                        "TEXCOORD_0" : 26
                    },
                    "indices" : 27
                }
            ]
        },
        {
            "name" : "Cube.079",
            "primitives" : [
                {
                    "attributes" : {
                        "POSITION" : 28,
                        "NORMAL" : 29,
                        "TEXCOORD_0" : 30
                    },
                    "indices" : 31
                }
            ]
        },
        {
            "name" : "Cube.080",
            "primitives" : [
                {
                    "attributes" : {
                        "POSITION" : 32,
                        "NORMAL" : 33,
                        "TEXCOORD_0" : 34
                    },
                    "indices" : 31
                }
            ]
        },
        {
            "name" : "Cube.081",
            "primitives" : [
                {
                    "attributes" : {
                        "POSITION" : 35,
                        "NORMAL" : 36,
                        "TEXCOORD_0" : 37
                    },
                    "indices" : 31
                }
            ]
        },
        {
            "name" : "Cube.082",
            "primitives" : [
                {
                    "attributes" : {
                        "POSITION" : 38,
                        "NORMAL" : 39,
                        "TEXCOORD_0" : 40
                    },
                    "indices" : 31
                }
            ]
        }
    ],
    "accessors" : [
        {
            "bufferView" : 0,
            "componentType" : 5126,
            "count" : 741,
            "max" : [
                8.78055191040039,
                89.94109344482422,
                7.847172260284424
            ],
            "min" : [
                -8.504561424255371,
                32.526634216308594,
                -8.06210708618164
            ],
            "type" : "VEC3"
        },
        {
            "bufferView" : 1,
            "componentType" : 5126,
            "count" : 741,
            "type" : "VEC3"
        },
        {
            "bufferView" : 2,
            "componentType" : 5126,
            "count" : 741,
            "type" : "VEC2"
        },
        {
            "bufferView" : 3,
            "componentType" : 5123,
            "count" : 3984,
            "type" : "SCALAR"
        },
        {
            "bufferView" : 4,
            "componentType" : 5126,
            "count" : 925,
            "max" : [
                8.60699462890625,
                89.96800231933594,
                9.257776260375977
            ],
            "min" : [
                -7.963000297546387,
                17.72332000732422,
                -8.410595893859863
            ],
            "type" : "VEC3"
        },
        {
            "bufferView" : 5,
            "componentType" : 5126,
            "count" : 925,
            "type" : "VEC3"
        },
        {
            "bufferView" : 6,
            "componentType" : 5126,
            "count" : 925,
            "type" : "VEC2"
        },
        {
            "bufferView" : 7,
            "componentType" : 5123,
            "count" : 5088,
            "type" : "SCALAR"
        },
        {
            "bufferView" : 8,
            "componentType" : 5126,
            "count" : 1099,
            "max" : [
                8.464753150939941,
                88.45112609863281,
                8.438071250915527
            ],
            "min" : [
                -8.146827697753906,
                6.069305419921875,
                -7.9413042068481445
            ],
            "type" : "VEC3"
        },
        {
            "bufferView" : 9,
            "componentType" : 5126,
            "count" : 1099,
            "type" : "VEC3"
        },
        {
            "bufferView" : 10,
            "componentType" : 5126,
            "count" : 1099,
            "type" : "VEC2"
        },
        {
            "bufferView" : 11,
            "componentType" : 5123,
            "count" : 5964,
            "type" : "SCALAR"
        },
        {
            "bufferView" : 12,
            "componentType" : 5126,
            "count" : 1139,
            "max" : [
                5.500583648681641,
                89.02423095703125,
                9.919954299926758
            ],
            "min" : [
                -10.445650100708008,
                2.3109970092773438,
                -6.863010406494141
            ],
            "type" : "VEC3"
        },
        {
            "bufferView" : 13,
            "componentType" : 5126,
            "count" : 1139,
            "type" : "VEC3"
        },
        {
            "bufferView" : 14,
            "componentType" : 5126,
            "count" : 1139,
            "type" : "VEC2"
        },
        {
            "bufferView" : 15,
            "componentType" : 5123,
            "count" : 6204,
            "type" : "SCALAR"
        },
        {
            "bufferView" : 16,
            "componentType" : 5126,
            "count" : 1200,
            "max" : [
                8.052826881408691,
                84.26477813720703,
                8.013410568237305
            ],
            "min" : [
                -7.387355327606201,
                -1.6707556247711182,
                -7.580739974975586
            ],
            "type" : "VEC3"
        },
        {
            "bufferView" : 17,
            "componentType" : 5126,
            "count" : 1200,
            "type" : "VEC3"
        },
        {
            "bufferView" : 18,
            "componentType" : 5126,
            "count" : 1200,
            "type" : "VEC2"
        },
        {
            "bufferView" : 19,
            "componentType" : 5123,
            "count" : 6576,
            "type" : "SCALAR"
        },
        {
            "bufferView" : 20,
            "componentType" : 5126,
            "count" : 949,
            "max" : [
                8.917490005493164,
                79.41055297851562,
                8.456827163696289
            ],
            "min" : [
                -7.435140609741211,
                6.680152893066406,
                -8.110241889953613
            ],
            "type" : "VEC3"
        },
        {
            "bufferView" : 21,
            "componentType" : 5126,
            "count" : 949,
            "type" : "VEC3"
        },
        {
            "bufferView" : 22,
            "componentType" : 5126,
            "count" : 949,
            "type" : "VEC2"
        },
        {
            "bufferView" : 23,
            "componentType" : 5123,
            "count" : 5064,
            "type" : "SCALAR"
        },
        {
            "bufferView" : 24,
            "componentType" : 5126,
            "count" : 1254,
            "max" : [
                7.664305686950684,
                97.54701232910156,
                7.247762680053711
            ],
            "min" : [
                -9.148027420043945,
                6.680152893066406,
                -8.453365325927734
            ],
            "type" : "VEC3"
        },
        {
            "bufferView" : 25,
            "componentType" : 5126,
            "count" : 1254,
            "type" : "VEC3"
        },
        {
            "bufferView" : 26,
            "componentType" : 5126,
            "count" : 1254,
            "type" : "VEC2"
        },
        {
            "bufferView" : 27,
            "componentType" : 5123,
            "count" : 6720,
            "type" : "SCALAR"
        },
        {
            "bufferView" : 28,
            "componentType" : 5126,
            "count" : 1396,
            "max" : [
                7.738730430603027,
                110.31132507324219,
                7.788673400878906
            ],
            "min" : [
                -7.649762153625488,
                9.354545593261719,
                -7.432420253753662
            ],
            "type" : "VEC3"
        },
        {
            "bufferView" : 29,
            "componentType" : 5126,
            "count" : 1396,
            "type" : "VEC3"
        },
        {
            "bufferView" : 30,
            "componentType" : 5126,
            "count" : 1396,
            "type" : "VEC2"
        },
        {
            "bufferView" : 31,
            "componentType" : 5123,
            "count" : 7548,
            "type" : "SCALAR"
        },
        {
            "bufferView" : 32,
            "componentType" : 5126,
            "count" : 1396,
            "max" : [
                8.60301399230957,
                110.27365112304688,
                7.435869216918945
            ],
            "min" : [
                -7.6127166748046875,
                9.345687866210938,
                -8.786088943481445
            ],
            "type" : "VEC3"
        },
        {
            "bufferView" : 33,
            "componentType" : 5126,
            "count" : 1396,
            "type" : "VEC3"
        },
        {
            "bufferView" : 34,
            "componentType" : 5126,
            "count" : 1396,
            "type" : "VEC2"
        },
        {
            "bufferView" : 35,
            "componentType" : 5126,
            "count" : 1396,
            "max" : [
                7.907109260559082,
                110.26297760009766,
                9.745057106018066
            ],
            "min" : [
                -7.500926494598389,
                9.335527420043945,
                -7.404230117797852
            ],
            "type" : "VEC3"
        },
        {
            "bufferView" : 36,
            "componentType" : 5126,
            "count" : 1396,
            "type" : "VEC3"
        },
        {
            "bufferView" : 37,
            "componentType" : 5126,
            "count" : 1396,
            "type" : "VEC2"
        },
        {
            "bufferView" : 38,
            "componentType" : 5126,
            "count" : 1396,
            "max" : [
                8.481719970703125,
                110.79287719726562,
                8.03272533416748
            ],
            "min" : [
                -8.192904472351074,
                8.511521339416504,
                -9.07646369934082
            ],
            "type" : "VEC3"
        },
        {
            "bufferView" : 39,
            "componentType" : 5126,
            "count" : 1396,
            "type" : "VEC3"
        },
        {
            "bufferView" : 40,
            "componentType" : 5126,
            "count" : 1396,
            "type" : "VEC2"
        }
    ],
    "bufferViews" : [
        {
            "buffer" : 0,
            "byteLength" : 8892,
            "byteOffset" : 0,
            "target" : 34962
        },
        {
            "buffer" : 0,
            "byteLength" : 8892,
            "byteOffset" : 8892,
            "target" : 34962
        },
        {
            "buffer" : 0,
            "byteLength" : 5928,
            "byteOffset" : 17784,
            "target" : 34962
        },
        {
            "buffer" : 0,
            "byteLength" : 7968,
            "byteOffset" : 23712,
            "target" : 34963
        },
        {
            "buffer" : 0,
            "byteLength" : 11100,
            "byteOffset" : 31680,
            "target" : 34962
        },
        {
            "buffer" : 0,
            "byteLength" : 11100,
            "byteOffset" : 42780,
            "target" : 34962
        },
        {
            "buffer" : 0,
            "byteLength" : 7400,
            "byteOffset" : 53880,
            "target" : 34962
        },
        {
            "buffer" : 0,
            "byteLength" : 10176,
            "byteOffset" : 61280,
            "target" : 34963
        },
        {
            "buffer" : 0,
            "byteLength" : 13188,
            "byteOffset" : 71456,
            "target" : 34962
        },
        {
            "buffer" : 0,
            "byteLength" : 13188,
            "byteOffset" : 84644,
            "target" : 34962
        },
        {
            "buffer" : 0,
            "byteLength" : 8792,
            "byteOffset" : 97832,
            "target" : 34962
        },
        {
            "buffer" : 0,
            "byteLength" : 11928,
            "byteOffset" : 106624,
            "target" : 34963
        },
        {
            "buffer" : 0,
            "byteLength" : 13668,
            "byteOffset" : 118552,
            "target" : 34962
        },
        {
            "buffer" : 0,
            "byteLength" : 13668,
            "byteOffset" : 132220,
            "target" : 34962
        },
        {
            "buffer" : 0,
            "byteLength" : 9112,
            "byteOffset" : 145888,
            "target" : 34962
        },
        {
            "buffer" : 0,
            "byteLength" : 12408,
            "byteOffset" : 155000,
            "target" : 34963
        },
        {
            "buffer" : 0,
            "byteLength" : 14400,
            "byteOffset" : 167408,
            "target" : 34962
        },
        {
            "buffer" : 0,
            "byteLength" : 14400,
            "byteOffset" : 181808,
            "target" : 34962
        },
        {
            "buffer" : 0,
            "byteLength" : 9600,
            "byteOffset" : 196208,
            "target" : 34962
        },
        {
            "buffer" : 0,
            "byteLength" : 13152,
            "byteOffset" : 205808,
            "target" : 34963
        },
        {
            "buffer" : 0,
            "byteLength" : 11388,
            "byteOffset" : 218960,
            "target" : 34962
        },
        {
            "buffer" : 0,
            "byteLength" : 11388,
            "byteOffset" : 230348,
            "target" : 34962
        },
        {
            "buffer" : 0,
            "byteLength" : 7592,
            "byteOffset" : 241736,
            "target" : 34962
        },
        {
            "buffer" : 0,
            "byteLength" : 10128,
            "byteOffset" : 249328,
            "target" : 34963
        },
        {
            "buffer" : 0,
            "byteLength" : 15048,
            "byteOffset" : 259456,
            "target" : 34962
        },
        {
            "buffer" : 0,
            "byteLength" : 15048,
            "byteOffset" : 274504,
            "target" : 34962
        },
        {
            "buffer" : 0,
            "byteLength" : 10032,
            "byteOffset" : 289552,
            "target" : 34962
        },
        {
            "buffer" : 0,
            "byteLength" : 13440,
            "byteOffset" : 299584,
            "target" : 34963
        },
        {
            "buffer" : 0,
            "byteLength" : 16752,
            "byteOffset" : 313024,
            "target" : 34962
        },
        {
            "buffer" : 0,
            "byteLength" : 16752,
            "byteOffset" : 329776,
            "target" : 34962
        },
        {
            "buffer" : 0,
            "byteLength" : 11168,
            "byteOffset" : 346528,
            "target" : 34962
        },
        {
            "buffer" : 0,
            "byteLength" : 15096,
            "byteOffset" : 357696,
            "target" : 34963
        },
        {
            "buffer" : 0,
            "byteLength" : 16752,
            "byteOffset" : 372792,
            "target" : 34962
        },
        {
            "buffer" : 0,
            "byteLength" : 16752,
            "byteOffset" : 389544,
            "target" : 34962
        },
        {
            "buffer" : 0,
            "byteLength" : 11168,
            "byteOffset" : 406296,
            "target" : 34962
        },
        {
            "buffer" : 0,
            "byteLength" : 16752,
            "byteOffset" : 417464,
            "target" : 34962
        },
        {
            "buffer" : 0,
            "byteLength" : 16752,
            "byteOffset" : 434216,
            "target" : 34962
        },
        {
            "buffer" : 0,
            "byteLength" : 11168,
            "byteOffset" : 450968,
            "target" : 34962
        },
        {
            "buffer" : 0,
            "byteLength" : 16752,
            "byteOffset" : 462136,
            "target" : 34962
        },
        {
            "buffer" : 0,
            "byteLength" : 16752,
            "byteOffset" : 478888,
            "target" : 34962
        },
        {
            "buffer" : 0,
            "byteLength" : 11168,
            "byteOffset" : 495640,
            "target" : 34962
        }
    ],
    "buffers" : [
        {
            "byteLength" : 506808,
            "uri" : "data:application/octet-stream;base64,"
        }
    ]
}
