{
    "asset" : {
        "generator" : "Khronos glTF Blender I/O v3.3.32",
        "version" : "2.0"
    },
    "scene" : 0,
    "scenes" : [
        {
            "name" : "Scene",
            "nodes" : [
                0
            ]
        }
    ],
    "nodes" : [
        {
            "mesh" : 0,
            "name" : "Wall2"
        }
    ],
    "meshes" : [
        {
            "name" : "Plane.006",
            "primitives" : [
                {
                    "attributes" : {
                        "POSITION" : 0,
                        "NORMAL" : 1,
                        "TEXCOORD_0" : 2
                    },
                    "indices" : 3
                }
            ]
        }
    ],
    "accessors" : [
        {
            "bufferView" : 0,
            "componentType" : 5126,
            "count" : 8051,
            "max" : [
                9.518961906433105,
                4.998730182647705,
                8.626775741577148
            ],
            "min" : [
                -10.36620044708252,
                -0.5399698615074158,
                -9.581055641174316
            ],
            "type" : "VEC3"
        },
        {
            "bufferView" : 1,
            "componentType" : 5126,
            "count" : 8051,
            "type" : "VEC3"
        },
        {
            "bufferView" : 2,
            "componentType" : 5126,
            "count" : 8051,
            "type" : "VEC2"
        },
        {
            "bufferView" : 3,
            "componentType" : 5123,
            "count" : 46140,
            "type" : "SCALAR"
        }
    ],
    "bufferViews" : [
        {
            "buffer" : 0,
            "byteLength" : 96612,
            "byteOffset" : 0,
            "target" : 34962
        },
        {
            "buffer" : 0,
            "byteLength" : 96612,
            "byteOffset" : 96612,
            "target" : 34962
        },
        {
            "buffer" : 0,
            "byteLength" : 64408,
            "byteOffset" : 193224,
            "target" : 34962
        },
        {
            "buffer" : 0,
            "byteLength" : 92280,
            "byteOffset" : 257632,
            "target" : 34963
        }
    ],
    "buffers" : [
        {
            "byteLength" : 349912,
            "uri" : "data:application/octet-stream;base64,"
        }
    ]
}
