{
    "asset" : {
        "generator" : "Khronos glTF Blender I/O v3.3.32",
        "version" : "2.0"
    },
    "scene" : 0,
    "scenes" : [
        {
            "name" : "Scene",
            "nodes" : [
                0
            ]
        }
    ],
    "nodes" : [
        {
            "mesh" : 0,
            "name" : "Plane.004",
            "translation" : [
                0,
                -4.510000228881836,
                0
            ]
        }
    ],
    "meshes" : [
        {
            "name" : "Plane.013",
            "primitives" : [
                {
                    "attributes" : {
                        "POSITION" : 0,
                        "NORMAL" : 1
                    },
                    "indices" : 2
                }
            ]
        }
    ],
    "accessors" : [
        {
            "bufferView" : 0,
            "componentType" : 5126,
            "count" : 9232,
            "max" : [
                69.0269775390625,
                78.7741928100586,
                19.32168960571289
            ],
            "min" : [
                -69.47610473632812,
                -4.912721633911133,
                -344.9127197265625
            ],
            "type" : "VEC3"
        },
        {
            "bufferView" : 1,
            "componentType" : 5126,
            "count" : 9232,
            "type" : "VEC3"
        },
        {
            "bufferView" : 2,
            "componentType" : 5123,
            "count" : 55464,
            "type" : "SCALAR"
        }
    ],
    "bufferViews" : [
        {
            "buffer" : 0,
            "byteLength" : 110784,
            "byteOffset" : 0,
            "target" : 34962
        },
        {
            "buffer" : 0,
            "byteLength" : 110784,
            "byteOffset" : 110784,
            "target" : 34962
        },
        {
            "buffer" : 0,
            "byteLength" : 110928,
            "byteOffset" : 221568,
            "target" : 34963
        }
    ],
    "buffers" : [
        {
            "byteLength" : 332496,
            "uri" : "data:application/octet-stream;base64,"
        }
    ]
}
