{
    "asset" : {
        "generator" : "Khronos glTF Blender I/O v3.3.32",
        "version" : "2.0"
    },
    "scene" : 0,
    "scenes" : [
        {
            "name" : "Scene",
            "nodes" : [
                0
            ]
        }
    ],
    "nodes" : [
        {
            "mesh" : 0,
            "name" : "SlatsFloorPapersMerge",
            "translation" : [
                0,
                0.05000000074505806,
                0
            ]
        }
    ],
    "meshes" : [
        {
            "name" : "Cube.022",
            "primitives" : [
                {
                    "attributes" : {
                        "POSITION" : 0,
                        "NORMAL" : 1,
                        "TEXCOORD_0" : 2
                    },
                    "indices" : 3
                },
                {
                    "attributes" : {
                        "POSITION" : 4,
                        "NORMAL" : 5,
                        "TEXCOORD_0" : 6
                    },
                    "indices" : 7
                }
            ]
        }
    ],
    "accessors" : [
        {
            "bufferView" : 0,
            "componentType" : 5126,
            "count" : 8996,
            "max" : [
                3.2231907844543457,
                -0.13891324400901794,
                2.4833359718322754
            ],
            "min" : [
                -3.4159302711486816,
                -0.3540251553058624,
                -2.2729530334472656
            ],
            "type" : "VEC3"
        },
        {
            "bufferView" : 1,
            "componentType" : 5126,
            "count" : 8996,
            "type" : "VEC3"
        },
        {
            "bufferView" : 2,
            "componentType" : 5126,
            "count" : 8996,
            "type" : "VEC2"
        },
        {
            "bufferView" : 3,
            "componentType" : 5123,
            "count" : 15585,
            "type" : "SCALAR"
        },
        {
            "bufferView" : 4,
            "componentType" : 5126,
            "count" : 3360,
            "max" : [
                2.798121929168701,
                -0.1464696079492569,
                2.6292881965637207
            ],
            "min" : [
                -2.658082962036133,
                -0.3328794240951538,
                -2.1639885902404785
            ],
            "type" : "VEC3"
        },
        {
            "bufferView" : 5,
            "componentType" : 5126,
            "count" : 3360,
            "type" : "VEC3"
        },
        {
            "bufferView" : 6,
            "componentType" : 5126,
            "count" : 3360,
            "type" : "VEC2"
        },
        {
            "bufferView" : 7,
            "componentType" : 5123,
            "count" : 5652,
            "type" : "SCALAR"
        }
    ],
    "bufferViews" : [
        {
            "buffer" : 0,
            "byteLength" : 107952,
            "byteOffset" : 0,
            "target" : 34962
        },
        {
            "buffer" : 0,
            "byteLength" : 107952,
            "byteOffset" : 107952,
            "target" : 34962
        },
        {
            "buffer" : 0,
            "byteLength" : 71968,
            "byteOffset" : 215904,
            "target" : 34962
        },
        {
            "buffer" : 0,
            "byteLength" : 31170,
            "byteOffset" : 287872,
            "target" : 34963
        },
        {
            "buffer" : 0,
            "byteLength" : 40320,
            "byteOffset" : 319044,
            "target" : 34962
        },
        {
            "buffer" : 0,
            "byteLength" : 40320,
            "byteOffset" : 359364,
            "target" : 34962
        },
        {
            "buffer" : 0,
            "byteLength" : 26880,
            "byteOffset" : 399684,
            "target" : 34962
        },
        {
            "buffer" : 0,
            "byteLength" : 11304,
            "byteOffset" : 426564,
            "target" : 34963
        }
    ],
    "buffers" : [
        {
            "byteLength" : 437868,
            "uri" : "data:application/octet-stream;base64,"
        }
    ]
}
