{
    "asset" : {
        "generator" : "Khronos glTF Blender I/O v3.3.32",
        "version" : "2.0"
    },
    "scene" : 0,
    "scenes" : [
        {
            "name" : "Scene",
            "nodes" : [
                0,
                1,
                2
            ]
        }
    ],
    "nodes" : [
        {
            "mesh" : 0,
            "name" : "Lantern",
            "scale" : [
                0.25,
                0.25,
                0.25
            ]
        },
        {
            "mesh" : 1,
            "name" : "Lantern.001",
            "scale" : [
                0.25,
                0.25,
                0.25
            ]
        },
        {
            "mesh" : 2,
            "name" : "LanternChain",
            "rotation" : [
                0,
                0.7071068286895752,
                0,
                0.7071068286895752
            ],
            "scale" : [
                0.02790474146604538,
                0.02790474146604538,
                0.02790474146604538
            ],
            "translation" : [
                0,
                0.6634067893028259,
                0
            ]
        }
    ],
    "meshes" : [
        {
            "name" : "Cylinder.002",
            "primitives" : [
                {
                    "attributes" : {
                        "POSITION" : 0,
                        "NORMAL" : 1,
                        "TEXCOORD_0" : 2
                    },
                    "indices" : 3
                }
            ]
        },
        {
            "name" : "Cylinder.004",
            "primitives" : [
                {
                    "attributes" : {
                        "POSITION" : 4,
                        "NORMAL" : 5,
                        "TEXCOORD_0" : 6
                    },
                    "indices" : 7
                },
                {
                    "attributes" : {
                        "POSITION" : 8,
                        "NORMAL" : 9,
                        "TEXCOORD_0" : 10
                    },
                    "indices" : 11
                }
            ]
        },
        {
            "name" : "BezierCircle.002",
            "primitives" : [
                {
                    "attributes" : {
                        "POSITION" : 12,
                        "NORMAL" : 13,
                        "TEXCOORD_0" : 14
                    },
                    "indices" : 15
                }
            ]
        }
    ],
    "accessors" : [
        {
            "bufferView" : 0,
            "componentType" : 5126,
            "count" : 728,
            "max" : [
                0.537337601184845,
                2.7246227264404297,
                0.537207305431366
            ],
            "min" : [
                -0.5372171401977539,
                -0.37160006165504456,
                -0.5373473763465881
            ],
            "type" : "VEC3"
        },
        {
            "bufferView" : 1,
            "componentType" : 5126,
            "count" : 728,
            "type" : "VEC3"
        },
        {
            "bufferView" : 2,
            "componentType" : 5126,
            "count" : 728,
            "type" : "VEC2"
        },
        {
            "bufferView" : 3,
            "componentType" : 5123,
            "count" : 2016,
            "type" : "SCALAR"
        },
        {
            "bufferView" : 4,
            "componentType" : 5126,
            "count" : 34,
            "max" : [
                0.0214541032910347,
                0.3073153793811798,
                0.11730750650167465
            ],
            "min" : [
                -0.030649781227111816,
                0.07793906331062317,
                -0.11744752526283264
            ],
            "type" : "VEC3"
        },
        {
            "bufferView" : 5,
            "componentType" : 5126,
            "count" : 34,
            "type" : "VEC3"
        },
        {
            "bufferView" : 6,
            "componentType" : 5126,
            "count" : 34,
            "type" : "VEC2"
        },
        {
            "bufferView" : 7,
            "componentType" : 5123,
            "count" : 54,
            "type" : "SCALAR"
        },
        {
            "bufferView" : 8,
            "componentType" : 5126,
            "count" : 26,
            "max" : [
                0.31338217854499817,
                0.9366163611412048,
                0.31325197219848633
            ],
            "min" : [
                -0.3132617771625519,
                -0.023549208417534828,
                -0.3133920133113861
            ],
            "type" : "VEC3"
        },
        {
            "bufferView" : 9,
            "componentType" : 5126,
            "count" : 26,
            "type" : "VEC3"
        },
        {
            "bufferView" : 10,
            "componentType" : 5126,
            "count" : 26,
            "type" : "VEC2"
        },
        {
            "bufferView" : 11,
            "componentType" : 5123,
            "count" : 72,
            "type" : "SCALAR"
        },
        {
            "bufferView" : 12,
            "componentType" : 5126,
            "count" : 672,
            "max" : [
                0.8647235631942749,
                0.8647165298461914,
                0.3318004608154297
            ],
            "min" : [
                -0.864722490310669,
                -0.8647288680076599,
                -12.660409927368164
            ],
            "type" : "VEC3"
        },
        {
            "bufferView" : 13,
            "componentType" : 5126,
            "count" : 672,
            "type" : "VEC3"
        },
        {
            "bufferView" : 14,
            "componentType" : 5126,
            "count" : 672,
            "type" : "VEC2"
        },
        {
            "bufferView" : 15,
            "componentType" : 5123,
            "count" : 3456,
            "type" : "SCALAR"
        }
    ],
    "bufferViews" : [
        {
            "buffer" : 0,
            "byteLength" : 8736,
            "byteOffset" : 0,
            "target" : 34962
        },
        {
            "buffer" : 0,
            "byteLength" : 8736,
            "byteOffset" : 8736,
            "target" : 34962
        },
        {
            "buffer" : 0,
            "byteLength" : 5824,
            "byteOffset" : 17472,
            "target" : 34962
        },
        {
            "buffer" : 0,
            "byteLength" : 4032,
            "byteOffset" : 23296,
            "target" : 34963
        },
        {
            "buffer" : 0,
            "byteLength" : 408,
            "byteOffset" : 27328,
            "target" : 34962
        },
        {
            "buffer" : 0,
            "byteLength" : 408,
            "byteOffset" : 27736,
            "target" : 34962
        },
        {
            "buffer" : 0,
            "byteLength" : 272,
            "byteOffset" : 28144,
            "target" : 34962
        },
        {
            "buffer" : 0,
            "byteLength" : 108,
            "byteOffset" : 28416,
            "target" : 34963
        },
        {
            "buffer" : 0,
            "byteLength" : 312,
            "byteOffset" : 28524,
            "target" : 34962
        },
        {
            "buffer" : 0,
            "byteLength" : 312,
            "byteOffset" : 28836,
            "target" : 34962
        },
        {
            "buffer" : 0,
            "byteLength" : 208,
            "byteOffset" : 29148,
            "target" : 34962
        },
        {
            "buffer" : 0,
            "byteLength" : 144,
            "byteOffset" : 29356,
            "target" : 34963
        },
        {
            "buffer" : 0,
            "byteLength" : 8064,
            "byteOffset" : 29500,
            "target" : 34962
        },
        {
            "buffer" : 0,
            "byteLength" : 8064,
            "byteOffset" : 37564,
            "target" : 34962
        },
        {
            "buffer" : 0,
            "byteLength" : 5376,
            "byteOffset" : 45628,
            "target" : 34962
        },
        {
            "buffer" : 0,
            "byteLength" : 6912,
            "byteOffset" : 51004,
            "target" : 34963
        }
    ],
    "buffers" : [
        {
            "byteLength" : 57916,
            "uri" : "data:application/octet-stream;base64,"
        }
    ]
}
