{
    "asset" : {
        "generator" : "Khronos glTF Blender I/O v3.3.32",
        "version" : "2.0"
    },
    "scene" : 0,
    "scenes" : [
        {
            "name" : "Scene",
            "nodes" : [
                1
            ]
        }
    ],
    "nodes" : [
        {
            "mesh" : 0,
            "name" : "Wall1-colonly"
        },
        {
            "children" : [
                0
            ],
            "mesh" : 1,
            "name" : "Wall1"
        }
    ],
    "meshes" : [
        {
            "name" : "Plane.008",
            "primitives" : [
                {
                    "attributes" : {
                        "POSITION" : 0,
                        "NORMAL" : 1,
                        "TEXCOORD_0" : 2,
                        "COLOR_0" : 3
                    },
                    "indices" : 4
                }
            ]
        },
        {
            "name" : "Plane.004",
            "primitives" : [
                {
                    "attributes" : {
                        "POSITION" : 5,
                        "NORMAL" : 6,
                        "TEXCOORD_0" : 7,
                        "COLOR_0" : 8
                    },
                    "indices" : 9
                }
            ]
        }
    ],
    "accessors" : [
        {
            "bufferView" : 0,
            "componentType" : 5126,
            "count" : 116,
            "max" : [
                1.561536192893982,
                4.69170618057251,
                22.976015090942383
            ],
            "min" : [
                -2.6939122676849365,
                -0.6907663345336914,
                -22.86818504333496
            ],
            "type" : "VEC3"
        },
        {
            "bufferView" : 1,
            "componentType" : 5126,
            "count" : 116,
            "type" : "VEC3"
        },
        {
            "bufferView" : 2,
            "componentType" : 5126,
            "count" : 116,
            "type" : "VEC2"
        },
        {
            "bufferView" : 3,
            "componentType" : 5123,
            "count" : 116,
            "normalized" : true,
            "type" : "VEC4"
        },
        {
            "bufferView" : 4,
            "componentType" : 5123,
            "count" : 456,
            "type" : "SCALAR"
        },
        {
            "bufferView" : 5,
            "componentType" : 5126,
            "count" : 8051,
            "max" : [
                1.6141903400421143,
                4.6357855796813965,
                22.965499877929688
            ],
            "min" : [
                -2.676335334777832,
                -0.6901413798332214,
                -22.91283416748047
            ],
            "type" : "VEC3"
        },
        {
            "bufferView" : 6,
            "componentType" : 5126,
            "count" : 8051,
            "type" : "VEC3"
        },
        {
            "bufferView" : 7,
            "componentType" : 5126,
            "count" : 8051,
            "type" : "VEC2"
        },
        {
            "bufferView" : 8,
            "componentType" : 5123,
            "count" : 8051,
            "normalized" : true,
            "type" : "VEC4"
        },
        {
            "bufferView" : 9,
            "componentType" : 5123,
            "count" : 46140,
            "type" : "SCALAR"
        }
    ],
    "bufferViews" : [
        {
            "buffer" : 0,
            "byteLength" : 1392,
            "byteOffset" : 0,
            "target" : 34962
        },
        {
            "buffer" : 0,
            "byteLength" : 1392,
            "byteOffset" : 1392,
            "target" : 34962
        },
        {
            "buffer" : 0,
            "byteLength" : 928,
            "byteOffset" : 2784,
            "target" : 34962
        },
        {
            "buffer" : 0,
            "byteLength" : 928,
            "byteOffset" : 3712,
            "target" : 34962
        },
        {
            "buffer" : 0,
            "byteLength" : 912,
            "byteOffset" : 4640,
            "target" : 34963
        },
        {
            "buffer" : 0,
            "byteLength" : 96612,
            "byteOffset" : 5552,
            "target" : 34962
        },
        {
            "buffer" : 0,
            "byteLength" : 96612,
            "byteOffset" : 102164,
            "target" : 34962
        },
        {
            "buffer" : 0,
            "byteLength" : 64408,
            "byteOffset" : 198776,
            "target" : 34962
        },
        {
            "buffer" : 0,
            "byteLength" : 64408,
            "byteOffset" : 263184,
            "target" : 34962
        },
        {
            "buffer" : 0,
            "byteLength" : 92280,
            "byteOffset" : 327592,
            "target" : 34963
        }
    ],
    "buffers" : [
        {
            "byteLength" : 419872,
            "uri" : "data:application/octet-stream;base64,"
        }
    ]
}
