{
    "asset" : {
        "generator" : "Khronos glTF Blender I/O v3.3.32",
        "version" : "2.0"
    },
    "scene" : 0,
    "scenes" : [
        {
            "name" : "Scene",
            "nodes" : [
                0
            ]
        }
    ],
    "nodes" : [
        {
            "mesh" : 0,
            "name" : "Plane"
        }
    ],
    "meshes" : [
        {
            "name" : "Plane",
            "primitives" : [
                {
                    "attributes" : {
                        "POSITION" : 0,
                        "NORMAL" : 1,
                        "TEXCOORD_0" : 2,
                        "COLOR_0" : 3
                    },
                    "indices" : 4
                }
            ]
        }
    ],
    "accessors" : [
        {
            "bufferView" : 0,
            "componentType" : 5126,
            "count" : 5697,
            "max" : [
                70.3630599975586,
                6.327093601226807,
                21.732742309570312
            ],
            "min" : [
                -77.91793060302734,
                -9.634556770324707,
                -346.93743896484375
            ],
            "type" : "VEC3"
        },
        {
            "bufferView" : 1,
            "componentType" : 5126,
            "count" : 5697,
            "type" : "VEC3"
        },
        {
            "bufferView" : 2,
            "componentType" : 5126,
            "count" : 5697,
            "type" : "VEC2"
        },
        {
            "bufferView" : 3,
            "componentType" : 5123,
            "count" : 5697,
            "normalized" : true,
            "type" : "VEC4"
        },
        {
            "bufferView" : 4,
            "componentType" : 5123,
            "count" : 32796,
            "type" : "SCALAR"
        }
    ],
    "bufferViews" : [
        {
            "buffer" : 0,
            "byteLength" : 68364,
            "byteOffset" : 0,
            "target" : 34962
        },
        {
            "buffer" : 0,
            "byteLength" : 68364,
            "byteOffset" : 68364,
            "target" : 34962
        },
        {
            "buffer" : 0,
            "byteLength" : 45576,
            "byteOffset" : 136728,
            "target" : 34962
        },
        {
            "buffer" : 0,
            "byteLength" : 45576,
            "byteOffset" : 182304,
            "target" : 34962
        },
        {
            "buffer" : 0,
            "byteLength" : 65592,
            "byteOffset" : 227880,
            "target" : 34963
        }
    ],
    "buffers" : [
        {
            "byteLength" : 293472,
            "uri" : "data:application/octet-stream;base64,"
        }
    ]
}
