{
    "asset" : {
        "generator" : "Khronos glTF Blender I/O v3.3.32",
        "version" : "2.0"
    },
    "scene" : 0,
    "scenes" : [
        {
            "name" : "Scene",
            "nodes" : [
                0
            ]
        }
    ],
    "nodes" : [
        {
            "mesh" : 0,
            "name" : "ObservatoryLP",
            "translation" : [
                8.92203140258789,
                -12.32826042175293,
                -614.361572265625
            ]
        }
    ],
    "meshes" : [
        {
            "name" : "mesh.007",
            "primitives" : [
                {
                    "attributes" : {
                        "POSITION" : 0,
                        "NORMAL" : 1,
                        "TEXCOORD_0" : 2,
                        "COLOR_0" : 3
                    },
                    "indices" : 4
                }
            ]
        }
    ],
    "accessors" : [
        {
            "bufferView" : 0,
            "componentType" : 5126,
            "count" : 42680,
            "max" : [
                48.105552673339844,
                55.717308044433594,
                49.736141204833984
            ],
            "min" : [
                -48.96073532104492,
                -7.338200092315674,
                -47.337005615234375
            ],
            "type" : "VEC3"
        },
        {
            "bufferView" : 1,
            "componentType" : 5126,
            "count" : 42680,
            "type" : "VEC3"
        },
        {
            "bufferView" : 2,
            "componentType" : 5126,
            "count" : 42680,
            "type" : "VEC2"
        },
        {
            "bufferView" : 3,
            "componentType" : 5123,
            "count" : 42680,
            "normalized" : true,
            "type" : "VEC4"
        },
        {
            "bufferView" : 4,
            "componentType" : 5123,
            "count" : 250686,
            "type" : "SCALAR"
        }
    ],
    "bufferViews" : [
        {
            "buffer" : 0,
            "byteLength" : 512160,
            "byteOffset" : 0,
            "target" : 34962
        },
        {
            "buffer" : 0,
            "byteLength" : 512160,
            "byteOffset" : 512160,
            "target" : 34962
        },
        {
            "buffer" : 0,
            "byteLength" : 341440,
            "byteOffset" : 1024320,
            "target" : 34962
        },
        {
            "buffer" : 0,
            "byteLength" : 341440,
            "byteOffset" : 1365760,
            "target" : 34962
        },
        {
            "buffer" : 0,
            "byteLength" : 501372,
            "byteOffset" : 1707200,
            "target" : 34963
        }
    ],
    "buffers" : [
        {
            "byteLength" : 2208572,
            "uri" : "data:application/octet-stream;base64,"
        }
    ]
}
