{
    "asset" : {
        "generator" : "Khronos glTF Blender I/O v3.3.32",
        "version" : "2.0"
    },
    "scene" : 0,
    "scenes" : [
        {
            "name" : "Scene",
            "nodes" : [
                0,
                1
            ]
        }
    ],
    "nodes" : [
        {
            "mesh" : 0,
            "name" : "CultistEyesMesh"
        },
        {
            "mesh" : 1,
            "name" : "CultistMesh"
        }
    ],
    "meshes" : [
        {
            "name" : "Sphere",
            "primitives" : [
                {
                    "attributes" : {
                        "POSITION" : 0,
                        "NORMAL" : 1,
                        "TEXCOORD_0" : 2
                    },
                    "indices" : 3
                }
            ]
        },
        {
            "name" : "mesh.003",
            "primitives" : [
                {
                    "attributes" : {
                        "POSITION" : 4,
                        "NORMAL" : 5,
                        "TEXCOORD_0" : 6
                    },
                    "indices" : 7
                }
            ]
        }
    ],
    "accessors" : [
        {
            "bufferView" : 0,
            "componentType" : 5126,
            "count" : 1118,
            "max" : [
                0.05448290333151817,
                1.7711440324783325,
                0.07264457643032074
            ],
            "min" : [
                -0.05448290333151817,
                1.7262974977493286,
                0.02779805287718773
            ],
            "type" : "VEC3"
        },
        {
            "bufferView" : 1,
            "componentType" : 5126,
            "count" : 1118,
            "type" : "VEC3"
        },
        {
            "bufferView" : 2,
            "componentType" : 5126,
            "count" : 1118,
            "type" : "VEC2"
        },
        {
            "bufferView" : 3,
            "componentType" : 5123,
            "count" : 5760,
            "type" : "SCALAR"
        },
        {
            "bufferView" : 4,
            "componentType" : 5126,
            "count" : 12010,
            "max" : [
                1.0997505187988281,
                1.8747467994689941,
                0.12349814921617508
            ],
            "min" : [
                -1.0997505187988281,
                0.00670849671587348,
                -0.2042933702468872
            ],
            "type" : "VEC3"
        },
        {
            "bufferView" : 5,
            "componentType" : 5126,
            "count" : 12010,
            "type" : "VEC3"
        },
        {
            "bufferView" : 6,
            "componentType" : 5126,
            "count" : 12010,
            "type" : "VEC2"
        },
        {
            "bufferView" : 7,
            "componentType" : 5123,
            "count" : 65640,
            "type" : "SCALAR"
        }
    ],
    "bufferViews" : [
        {
            "buffer" : 0,
            "byteLength" : 13416,
            "byteOffset" : 0,
            "target" : 34962
        },
        {
            "buffer" : 0,
            "byteLength" : 13416,
            "byteOffset" : 13416,
            "target" : 34962
        },
        {
            "buffer" : 0,
            "byteLength" : 8944,
            "byteOffset" : 26832,
            "target" : 34962
        },
        {
            "buffer" : 0,
            "byteLength" : 11520,
            "byteOffset" : 35776,
            "target" : 34963
        },
        {
            "buffer" : 0,
            "byteLength" : 144120,
            "byteOffset" : 47296,
            "target" : 34962
        },
        {
            "buffer" : 0,
            "byteLength" : 144120,
            "byteOffset" : 191416,
            "target" : 34962
        },
        {
            "buffer" : 0,
            "byteLength" : 96080,
            "byteOffset" : 335536,
            "target" : 34962
        },
        {
            "buffer" : 0,
            "byteLength" : 131280,
            "byteOffset" : 431616,
            "target" : 34963
        }
    ],
    "buffers" : [
        {
            "byteLength" : 562896,
            "uri" : "data:application/octet-stream;base64,"
        }
    ]
}
