{
    "asset" : {
        "generator" : "Khronos glTF Blender I/O v3.3.32",
        "version" : "2.0"
    },
    "scene" : 0,
    "scenes" : [
        {
            "name" : "Scene",
            "nodes" : [
                0
            ]
        }
    ],
    "nodes" : [
        {
            "mesh" : 0,
            "name" : "TempleWallMesh",
            "scale" : [
                0.9666666388511658,
                0.9666666388511658,
                1
            ],
            "translation" : [
                21.29020118713379,
                -1.251321792602539,
                -388.58294677734375
            ]
        }
    ],
    "meshes" : [
        {
            "name" : "Cube.033",
            "primitives" : [
                {
                    "attributes" : {
                        "POSITION" : 0,
                        "NORMAL" : 1,
                        "TEXCOORD_0" : 2
                    },
                    "indices" : 3
                }
            ]
        }
    ],
    "accessors" : [
        {
            "bufferView" : 0,
            "componentType" : 5126,
            "count" : 4863,
            "max" : [
                128.23802185058594,
                26.744552612304688,
                5.0930938720703125
            ],
            "min" : [
                -33.10082244873047,
                -34.85906219482422,
                -152.92843627929688
            ],
            "type" : "VEC3"
        },
        {
            "bufferView" : 1,
            "componentType" : 5126,
            "count" : 4863,
            "type" : "VEC3"
        },
        {
            "bufferView" : 2,
            "componentType" : 5126,
            "count" : 4863,
            "type" : "VEC2"
        },
        {
            "bufferView" : 3,
            "componentType" : 5123,
            "count" : 24288,
            "type" : "SCALAR"
        }
    ],
    "bufferViews" : [
        {
            "buffer" : 0,
            "byteLength" : 58356,
            "byteOffset" : 0,
            "target" : 34962
        },
        {
            "buffer" : 0,
            "byteLength" : 58356,
            "byteOffset" : 58356,
            "target" : 34962
        },
        {
            "buffer" : 0,
            "byteLength" : 38904,
            "byteOffset" : 116712,
            "target" : 34962
        },
        {
            "buffer" : 0,
            "byteLength" : 48576,
            "byteOffset" : 155616,
            "target" : 34963
        }
    ],
    "buffers" : [
        {
            "byteLength" : 204192,
            "uri" : "data:application/octet-stream;base64,"
        }
    ]
}
