{
    "asset" : {
        "generator" : "Khronos glTF Blender I/O v3.3.32",
        "version" : "2.0"
    },
    "scene" : 0,
    "scenes" : [
        {
            "name" : "Scene",
            "nodes" : [
                0,
                1,
                2,
                3
            ]
        }
    ],
    "nodes" : [
        {
            "mesh" : 0,
            "name" : "MetalTowers"
        },
        {
            "mesh" : 1,
            "name" : "MetalBraces",
            "translation" : [
                0,
                2.157527446746826,
                0
            ]
        },
        {
            "mesh" : 2,
            "name" : "WoodBoards"
        },
        {
            "mesh" : 3,
            "name" : "Rails"
        }
    ],
    "meshes" : [
        {
            "name" : "Cube.024",
            "primitives" : [
                {
                    "attributes" : {
                        "POSITION" : 0,
                        "NORMAL" : 1,
                        "TEXCOORD_0" : 2
                    },
                    "indices" : 3
                }
            ]
        },
        {
            "name" : "Cylinder.001",
            "primitives" : [
                {
                    "attributes" : {
                        "POSITION" : 4,
                        "NORMAL" : 5,
                        "TEXCOORD_0" : 6
                    },
                    "indices" : 7
                }
            ]
        },
        {
            "name" : "Cube.003",
            "primitives" : [
                {
                    "attributes" : {
                        "POSITION" : 8,
                        "NORMAL" : 9,
                        "TEXCOORD_0" : 10
                    },
                    "indices" : 11
                },
                {
                    "attributes" : {
                        "POSITION" : 12,
                        "NORMAL" : 13,
                        "TEXCOORD_0" : 14
                    },
                    "indices" : 15
                }
            ]
        },
        {
            "name" : "Cube.012",
            "primitives" : [
                {
                    "attributes" : {
                        "POSITION" : 16,
                        "NORMAL" : 17,
                        "TEXCOORD_0" : 18
                    },
                    "indices" : 19
                }
            ]
        }
    ],
    "accessors" : [
        {
            "bufferView" : 0,
            "componentType" : 5126,
            "count" : 368,
            "max" : [
                5.318076133728027,
                83.32952117919922,
                5.210175514221191
            ],
            "min" : [
                -5.318076133728027,
                0.33184054493904114,
                -5.210175514221191
            ],
            "type" : "VEC3"
        },
        {
            "bufferView" : 1,
            "componentType" : 5126,
            "count" : 368,
            "type" : "VEC3"
        },
        {
            "bufferView" : 2,
            "componentType" : 5126,
            "count" : 368,
            "type" : "VEC2"
        },
        {
            "bufferView" : 3,
            "componentType" : 5123,
            "count" : 648,
            "type" : "SCALAR"
        },
        {
            "bufferView" : 4,
            "componentType" : 5126,
            "count" : 11628,
            "max" : [
                4.358097076416016,
                84.1217269897461,
                5.041853904724121
            ],
            "min" : [
                -4.358097076416016,
                -1.4213039875030518,
                -5.04284143447876
            ],
            "type" : "VEC3"
        },
        {
            "bufferView" : 5,
            "componentType" : 5126,
            "count" : 11628,
            "type" : "VEC3"
        },
        {
            "bufferView" : 6,
            "componentType" : 5126,
            "count" : 11628,
            "type" : "VEC2"
        },
        {
            "bufferView" : 7,
            "componentType" : 5123,
            "count" : 21948,
            "type" : "SCALAR"
        },
        {
            "bufferView" : 8,
            "componentType" : 5126,
            "count" : 3600,
            "max" : [
                6.018439769744873,
                79.46176147460938,
                6.411670207977295
            ],
            "min" : [
                -5.960756301879883,
                1.130141258239746,
                -5.971474647521973
            ],
            "type" : "VEC3"
        },
        {
            "bufferView" : 9,
            "componentType" : 5126,
            "count" : 3600,
            "type" : "VEC3"
        },
        {
            "bufferView" : 10,
            "componentType" : 5126,
            "count" : 3600,
            "type" : "VEC2"
        },
        {
            "bufferView" : 11,
            "componentType" : 5123,
            "count" : 8640,
            "type" : "SCALAR"
        },
        {
            "bufferView" : 12,
            "componentType" : 5126,
            "count" : 1440,
            "max" : [
                5.98848295211792,
                79.46176147460938,
                6.411670207977295
            ],
            "min" : [
                -5.917459487915039,
                1.130141258239746,
                -5.971474647521973
            ],
            "type" : "VEC3"
        },
        {
            "bufferView" : 13,
            "componentType" : 5126,
            "count" : 1440,
            "type" : "VEC3"
        },
        {
            "bufferView" : 14,
            "componentType" : 5126,
            "count" : 1440,
            "type" : "VEC2"
        },
        {
            "bufferView" : 15,
            "componentType" : 5123,
            "count" : 2880,
            "type" : "SCALAR"
        },
        {
            "bufferView" : 16,
            "componentType" : 5126,
            "count" : 212,
            "max" : [
                4.212392330169678,
                83.3444595336914,
                0.5357424020767212
            ],
            "min" : [
                -4.212392330169678,
                0.32351481914520264,
                -0.489319771528244
            ],
            "type" : "VEC3"
        },
        {
            "bufferView" : 17,
            "componentType" : 5126,
            "count" : 212,
            "type" : "VEC3"
        },
        {
            "bufferView" : 18,
            "componentType" : 5126,
            "count" : 212,
            "type" : "VEC2"
        },
        {
            "bufferView" : 19,
            "componentType" : 5123,
            "count" : 564,
            "type" : "SCALAR"
        }
    ],
    "bufferViews" : [
        {
            "buffer" : 0,
            "byteLength" : 4416,
            "byteOffset" : 0,
            "target" : 34962
        },
        {
            "buffer" : 0,
            "byteLength" : 4416,
            "byteOffset" : 4416,
            "target" : 34962
        },
        {
            "buffer" : 0,
            "byteLength" : 2944,
            "byteOffset" : 8832,
            "target" : 34962
        },
        {
            "buffer" : 0,
            "byteLength" : 1296,
            "byteOffset" : 11776,
            "target" : 34963
        },
        {
            "buffer" : 0,
            "byteLength" : 139536,
            "byteOffset" : 13072,
            "target" : 34962
        },
        {
            "buffer" : 0,
            "byteLength" : 139536,
            "byteOffset" : 152608,
            "target" : 34962
        },
        {
            "buffer" : 0,
            "byteLength" : 93024,
            "byteOffset" : 292144,
            "target" : 34962
        },
        {
            "buffer" : 0,
            "byteLength" : 43896,
            "byteOffset" : 385168,
            "target" : 34963
        },
        {
            "buffer" : 0,
            "byteLength" : 43200,
            "byteOffset" : 429064,
            "target" : 34962
        },
        {
            "buffer" : 0,
            "byteLength" : 43200,
            "byteOffset" : 472264,
            "target" : 34962
        },
        {
            "buffer" : 0,
            "byteLength" : 28800,
            "byteOffset" : 515464,
            "target" : 34962
        },
        {
            "buffer" : 0,
            "byteLength" : 17280,
            "byteOffset" : 544264,
            "target" : 34963
        },
        {
            "buffer" : 0,
            "byteLength" : 17280,
            "byteOffset" : 561544,
            "target" : 34962
        },
        {
            "buffer" : 0,
            "byteLength" : 17280,
            "byteOffset" : 578824,
            "target" : 34962
        },
        {
            "buffer" : 0,
            "byteLength" : 11520,
            "byteOffset" : 596104,
            "target" : 34962
        },
        {
            "buffer" : 0,
            "byteLength" : 5760,
            "byteOffset" : 607624,
            "target" : 34963
        },
        {
            "buffer" : 0,
            "byteLength" : 2544,
            "byteOffset" : 613384,
            "target" : 34962
        },
        {
            "buffer" : 0,
            "byteLength" : 2544,
            "byteOffset" : 615928,
            "target" : 34962
        },
        {
            "buffer" : 0,
            "byteLength" : 1696,
            "byteOffset" : 618472,
            "target" : 34962
        },
        {
            "buffer" : 0,
            "byteLength" : 1128,
            "byteOffset" : 620168,
            "target" : 34963
        }
    ],
    "buffers" : [
        {
            "byteLength" : 621296,
            "uri" : "data:application/octet-stream;base64,"
        }
    ]
}
